<svg width="281" height="35" viewBox="0 0 281 35" fill="none" xmlns="http://www.w3.org/2000/svg">
<path d="M281.001 17.5L110.999 17.5" stroke="#ECE7E1"/>
<mask id="path-2-outside-1_28_189" maskUnits="userSpaceOnUse" x="0" y="4" width="71" height="26" fill="black">
<rect fill="white" y="4" width="71" height="26"/>
<path d="M14.1291 28C13.3091 28 12.6791 27.82 12.2391 27.46C11.8191 27.1 11.5991 26.74 11.5791 26.38L11.5491 25.87V16.45C11.5491 14.87 11.1291 13.86 10.2891 13.42C9.8891 13.22 9.3791 13.12 8.7591 13.12C7.5191 13.12 6.3991 13.63 5.3991 14.65C4.4191 15.65 3.9291 16.55 3.9291 17.35V28H1.8291V5.53H3.9291V16.42C4.2491 15.56 4.8591 14.76 5.7591 14.02C6.6591 13.26 7.6691 12.88 8.7891 12.88C10.7291 12.88 12.0191 13.22 12.6591 13.9C13.3191 14.56 13.6491 15.42 13.6491 16.48V25.87C13.6491 26.45 13.7591 26.9 13.9791 27.22C14.2191 27.52 14.4491 27.68 14.6691 27.7L15.0291 27.76H15.9591V28H14.1291ZM24.4008 28.12C22.3008 28.12 20.5908 27.52 19.2708 26.32C17.9508 25.12 17.2908 23.27 17.2908 20.77C17.2908 18.27 17.9708 16.33 19.3308 14.95C20.7108 13.57 22.4508 12.88 24.5508 12.88C26.6708 12.88 28.3908 13.48 29.7108 14.68C31.0308 15.88 31.6908 17.73 31.6908 20.23C31.6908 22.73 31.0008 24.67 29.6208 26.05C28.2608 27.43 26.5208 28.12 24.4008 28.12ZM24.6108 13.12C23.0908 13.12 21.8308 13.8 20.8308 15.16C19.8308 16.5 19.3308 18.38 19.3308 20.8C19.3308 23.2 19.7908 24.98 20.7108 26.14C21.6308 27.3 22.8508 27.88 24.3708 27.88C25.8908 27.88 27.1508 27.21 28.1508 25.87C29.1508 24.51 29.6508 22.63 29.6508 20.23C29.6508 17.81 29.1908 16.02 28.2708 14.86C27.3508 13.7 26.1308 13.12 24.6108 13.12ZM51.582 16.45C51.582 15.23 51.422 14.37 51.102 13.87C50.782 13.37 50.172 13.12 49.272 13.12C48.072 13.12 47.002 13.62 46.062 14.62C45.142 15.62 44.682 16.52 44.682 17.32V28H42.582V16.45C42.582 15.23 42.422 14.37 42.102 13.87C41.782 13.37 41.102 13.12 40.062 13.12C39.022 13.12 38.032 13.6 37.092 14.56C36.172 15.52 35.672 16.41 35.592 17.23V28H33.492V13H35.592V16.39C35.912 15.53 36.502 14.73 37.362 13.99C38.222 13.25 39.182 12.88 40.242 12.88C41.302 12.88 42.142 12.98 42.762 13.18C43.402 13.36 43.852 13.65 44.112 14.05C44.372 14.45 44.532 14.8 44.592 15.1C44.652 15.4 44.682 15.82 44.682 16.36C45.002 15.5 45.582 14.71 46.422 13.99C47.262 13.25 48.162 12.88 49.122 12.88C50.082 12.88 50.852 12.96 51.432 13.12C52.012 13.28 52.442 13.46 52.722 13.66C53.022 13.86 53.242 14.15 53.382 14.53C53.542 14.91 53.632 15.22 53.652 15.46C53.672 15.7 53.682 16.04 53.682 16.48V25.87C53.682 26.45 53.792 26.9 54.012 27.22C54.252 27.52 54.492 27.68 54.732 27.7L55.062 27.76H55.992V28H54.162C53.342 28 52.712 27.82 52.272 27.46C51.852 27.1 51.632 26.74 51.612 26.38L51.582 25.87V16.45ZM58.9402 20.68C58.9402 23.16 59.3702 24.98 60.2302 26.14C61.1102 27.3 62.2602 27.88 63.6802 27.88C65.6802 27.88 67.4602 27.58 69.0202 26.98L69.1102 27.19C67.5102 27.81 65.7002 28.12 63.6802 28.12C61.6802 28.12 60.0502 27.52 58.7902 26.32C57.5302 25.12 56.9002 23.27 56.9002 20.77C56.9002 18.27 57.5602 16.33 58.8802 14.95C60.2002 13.57 61.8802 12.88 63.9202 12.88C65.5602 12.88 66.9402 13.37 68.0602 14.35C69.1802 15.33 69.7402 16.78 69.7402 18.7C69.7402 18.8 69.7402 18.9 69.7402 19H59.0302C58.9702 19.54 58.9402 20.1 58.9402 20.68ZM67.7002 18.76C67.6802 16.84 67.3102 15.42 66.5902 14.5C65.8702 13.58 64.9402 13.12 63.8002 13.12C62.6602 13.12 61.6402 13.62 60.7402 14.62C59.8602 15.62 59.3002 17 59.0602 18.76H67.7002Z"/>
</mask>
<path d="M14.1291 28C13.3091 28 12.6791 27.82 12.2391 27.46C11.8191 27.1 11.5991 26.74 11.5791 26.38L11.5491 25.87V16.45C11.5491 14.87 11.1291 13.86 10.2891 13.42C9.8891 13.22 9.3791 13.12 8.7591 13.12C7.5191 13.12 6.3991 13.63 5.3991 14.65C4.4191 15.65 3.9291 16.55 3.9291 17.35V28H1.8291V5.53H3.9291V16.42C4.2491 15.56 4.8591 14.76 5.7591 14.02C6.6591 13.26 7.6691 12.88 8.7891 12.88C10.7291 12.88 12.0191 13.22 12.6591 13.9C13.3191 14.56 13.6491 15.42 13.6491 16.48V25.87C13.6491 26.45 13.7591 26.9 13.9791 27.22C14.2191 27.52 14.4491 27.68 14.6691 27.7L15.0291 27.76H15.9591V28H14.1291ZM24.4008 28.12C22.3008 28.12 20.5908 27.52 19.2708 26.32C17.9508 25.12 17.2908 23.27 17.2908 20.77C17.2908 18.27 17.9708 16.33 19.3308 14.95C20.7108 13.57 22.4508 12.88 24.5508 12.88C26.6708 12.88 28.3908 13.48 29.7108 14.68C31.0308 15.88 31.6908 17.73 31.6908 20.23C31.6908 22.73 31.0008 24.67 29.6208 26.05C28.2608 27.43 26.5208 28.12 24.4008 28.12ZM24.6108 13.12C23.0908 13.12 21.8308 13.8 20.8308 15.16C19.8308 16.5 19.3308 18.38 19.3308 20.8C19.3308 23.2 19.7908 24.98 20.7108 26.14C21.6308 27.3 22.8508 27.88 24.3708 27.88C25.8908 27.88 27.1508 27.21 28.1508 25.87C29.1508 24.51 29.6508 22.63 29.6508 20.23C29.6508 17.81 29.1908 16.02 28.2708 14.86C27.3508 13.7 26.1308 13.12 24.6108 13.12ZM51.582 16.45C51.582 15.23 51.422 14.37 51.102 13.87C50.782 13.37 50.172 13.12 49.272 13.12C48.072 13.12 47.002 13.62 46.062 14.62C45.142 15.62 44.682 16.52 44.682 17.32V28H42.582V16.45C42.582 15.23 42.422 14.37 42.102 13.87C41.782 13.37 41.102 13.12 40.062 13.12C39.022 13.12 38.032 13.6 37.092 14.56C36.172 15.52 35.672 16.41 35.592 17.23V28H33.492V13H35.592V16.39C35.912 15.53 36.502 14.73 37.362 13.99C38.222 13.25 39.182 12.88 40.242 12.88C41.302 12.88 42.142 12.98 42.762 13.18C43.402 13.36 43.852 13.65 44.112 14.05C44.372 14.45 44.532 14.8 44.592 15.1C44.652 15.4 44.682 15.82 44.682 16.36C45.002 15.5 45.582 14.71 46.422 13.99C47.262 13.25 48.162 12.88 49.122 12.88C50.082 12.88 50.852 12.96 51.432 13.12C52.012 13.28 52.442 13.46 52.722 13.66C53.022 13.86 53.242 14.15 53.382 14.53C53.542 14.91 53.632 15.22 53.652 15.46C53.672 15.7 53.682 16.04 53.682 16.48V25.87C53.682 26.45 53.792 26.9 54.012 27.22C54.252 27.52 54.492 27.68 54.732 27.7L55.062 27.76H55.992V28H54.162C53.342 28 52.712 27.82 52.272 27.46C51.852 27.1 51.632 26.74 51.612 26.38L51.582 25.87V16.45ZM58.9402 20.68C58.9402 23.16 59.3702 24.98 60.2302 26.14C61.1102 27.3 62.2602 27.88 63.6802 27.88C65.6802 27.88 67.4602 27.58 69.0202 26.98L69.1102 27.19C67.5102 27.81 65.7002 28.12 63.6802 28.12C61.6802 28.12 60.0502 27.52 58.7902 26.32C57.5302 25.12 56.9002 23.27 56.9002 20.77C56.9002 18.27 57.5602 16.33 58.8802 14.95C60.2002 13.57 61.8802 12.88 63.9202 12.88C65.5602 12.88 66.9402 13.37 68.0602 14.35C69.1802 15.33 69.7402 16.78 69.7402 18.7C69.7402 18.8 69.7402 18.9 69.7402 19H59.0302C58.9702 19.54 58.9402 20.1 58.9402 20.68ZM67.7002 18.76C67.6802 16.84 67.3102 15.42 66.5902 14.5C65.8702 13.58 64.9402 13.12 63.8002 13.12C62.6602 13.12 61.6402 13.62 60.7402 14.62C59.8602 15.62 59.3002 17 59.0602 18.76H67.7002Z" fill="#ECE7E1"/>
<path d="M12.2391 27.46L11.5883 28.2193L11.597 28.2267L11.6059 28.234L12.2391 27.46ZM11.5791 26.38L12.5776 26.3245L12.5774 26.3213L11.5791 26.38ZM11.5491 25.87H10.5491V25.8994L10.5508 25.9287L11.5491 25.87ZM10.2891 13.42L10.7531 12.5342L10.7448 12.5298L10.7363 12.5256L10.2891 13.42ZM5.3991 14.65L4.68503 13.9499L4.68489 13.9501L5.3991 14.65ZM3.9291 28V29H4.9291V28H3.9291ZM1.8291 28H0.829102V29H1.8291V28ZM1.8291 5.53V4.53H0.829102V5.53H1.8291ZM3.9291 5.53H4.9291V4.53H3.9291V5.53ZM3.9291 16.42H2.9291L4.86632 16.7687L3.9291 16.42ZM5.7591 14.02L6.39426 14.7925L6.40428 14.784L5.7591 14.02ZM12.6591 13.9L11.9309 14.5854L11.9413 14.5964L11.952 14.6071L12.6591 13.9ZM13.9791 27.22L13.1551 27.7865L13.1756 27.8164L13.1982 27.8447L13.9791 27.22ZM14.6691 27.7L14.8335 26.7136L14.7967 26.7075L14.7596 26.7041L14.6691 27.7ZM15.0291 27.76L14.8647 28.7464L14.9463 28.76H15.0291V27.76ZM15.9591 27.76H16.9591V26.76H15.9591V27.76ZM15.9591 28V29H16.9591V28H15.9591ZM14.1291 27C13.4403 27 13.0694 26.8473 12.8723 26.686L11.6059 28.234C12.2888 28.7927 13.1779 29 14.1291 29V27ZM12.8899 26.7007C12.5679 26.4247 12.576 26.2963 12.5776 26.3245L10.5806 26.4355C10.6222 27.1837 11.0703 27.7753 11.5883 28.2193L12.8899 26.7007ZM12.5774 26.3213L12.5474 25.8113L10.5508 25.9287L10.5808 26.4387L12.5774 26.3213ZM12.5491 25.87V16.45H10.5491V25.87H12.5491ZM12.5491 16.45C12.5491 14.7599 12.1034 13.2414 10.7531 12.5342L9.8251 14.3058C10.1548 14.4786 10.5491 14.9801 10.5491 16.45H12.5491ZM10.7363 12.5256C10.1544 12.2346 9.47779 12.12 8.7591 12.12V14.12C9.28041 14.12 9.62376 14.2054 9.84189 14.3144L10.7363 12.5256ZM8.7591 12.12C7.20909 12.12 5.84203 12.7698 4.68503 13.9499L6.11317 15.3501C6.95618 14.4902 7.82911 14.12 8.7591 14.12V12.12ZM4.68489 13.9501C3.64846 15.0077 2.9291 16.1505 2.9291 17.35H4.9291C4.9291 16.9495 5.18975 16.2923 6.11331 15.3499L4.68489 13.9501ZM2.9291 17.35V28H4.9291V17.35H2.9291ZM3.9291 27H1.8291V29H3.9291V27ZM2.8291 28V5.53H0.829102V28H2.8291ZM1.8291 6.53H3.9291V4.53H1.8291V6.53ZM2.9291 5.53V16.42H4.9291V5.53H2.9291ZM4.86632 16.7687C5.11027 16.1131 5.59436 15.4501 6.39421 14.7924L5.124 13.2476C4.12384 14.0699 3.38793 15.0069 2.99188 16.0713L4.86632 16.7687ZM6.40428 14.784C7.13397 14.1679 7.91821 13.88 8.7891 13.88V11.88C7.41999 11.88 6.18424 12.3521 5.11392 13.256L6.40428 14.784ZM8.7891 13.88C9.70829 13.88 10.4232 13.9614 10.9567 14.102C11.4944 14.2437 11.783 14.4282 11.9309 14.5854L13.3873 13.2146C12.8952 12.6918 12.2188 12.3663 11.4665 12.168C10.71 11.9686 9.80991 11.88 8.7891 11.88V13.88ZM11.952 14.6071C12.3985 15.0536 12.6491 15.6461 12.6491 16.48H14.6491C14.6491 15.1939 14.2397 14.0664 13.3662 13.1929L11.952 14.6071ZM12.6491 16.48V25.87H14.6491V16.48H12.6491ZM12.6491 25.87C12.6491 26.5582 12.7767 27.2362 13.1551 27.7865L14.8031 26.6535C14.7415 26.5638 14.6491 26.3418 14.6491 25.87H12.6491ZM13.1982 27.8447C13.491 28.2106 13.9449 28.6383 14.5786 28.6959L14.7596 26.7041C14.8627 26.7135 14.9129 26.7512 14.9027 26.7441C14.8979 26.7408 14.8823 26.7292 14.8567 26.7041C14.8312 26.6791 14.7988 26.6438 14.76 26.5953L13.1982 27.8447ZM14.5047 28.6864L14.8647 28.7464L15.1935 26.7736L14.8335 26.7136L14.5047 28.6864ZM15.0291 28.76H15.9591V26.76H15.0291V28.76ZM14.9591 27.76V28H16.9591V27.76H14.9591ZM15.9591 27H14.1291V29H15.9591V27ZM19.2708 26.32L19.9435 25.5801L19.2708 26.32ZM19.3308 14.95L18.6237 14.2429L18.6186 14.2481L19.3308 14.95ZM29.7108 14.68L30.3835 13.9401L29.7108 14.68ZM29.6208 26.05L28.9137 25.3429L28.9086 25.3481L29.6208 26.05ZM20.8308 15.16L21.6323 15.7581L21.6365 15.7524L20.8308 15.16ZM20.7108 26.14L21.4943 25.5186V25.5186L20.7108 26.14ZM28.1508 25.87L28.9523 26.4681L28.9565 26.4624L28.1508 25.87ZM24.4008 27.12C22.5028 27.12 21.0475 26.5837 19.9435 25.5801L18.5981 27.0599C20.1341 28.4563 22.0988 29.12 24.4008 29.12V27.12ZM19.9435 25.5801C18.9049 24.6359 18.2908 23.1047 18.2908 20.77H16.2908C16.2908 23.4353 16.9968 25.6041 18.5981 27.0599L19.9435 25.5801ZM18.2908 20.77C18.2908 18.4532 18.9166 16.7949 20.0431 15.6519L18.6186 14.2481C17.025 15.8651 16.2908 18.0868 16.2908 20.77H18.2908ZM20.0379 15.6571C21.2152 14.4798 22.6937 13.88 24.5508 13.88V11.88C22.2079 11.88 20.2064 12.6602 18.6237 14.2429L20.0379 15.6571ZM24.5508 13.88C26.4717 13.88 27.9359 14.4179 29.0381 15.4199L30.3835 13.9401C28.8458 12.5421 26.87 11.88 24.5508 11.88V13.88ZM29.0381 15.4199C30.0768 16.3641 30.6908 17.8953 30.6908 20.23H32.6908C32.6908 17.5647 31.9849 15.3959 30.3835 13.9401L29.0381 15.4199ZM30.6908 20.23C30.6908 22.5429 30.0574 24.1992 28.9137 25.3429L30.3279 26.7571C31.9443 25.1408 32.6908 22.9171 32.6908 20.23H30.6908ZM28.9086 25.3481C27.7552 26.5184 26.2809 27.12 24.4008 27.12V29.12C26.7608 29.12 28.7665 28.3416 30.3331 26.7519L28.9086 25.3481ZM24.6108 12.12C22.7342 12.12 21.1895 12.9841 20.0252 14.5676L21.6365 15.7524C22.4721 14.6159 23.4475 14.12 24.6108 14.12V12.12ZM20.0294 14.5619C18.8542 16.1366 18.3308 18.2573 18.3308 20.8H20.3308C20.3308 18.5027 20.8074 16.8634 21.6323 15.7581L20.0294 14.5619ZM18.3308 20.8C18.3308 23.2957 18.8035 25.3444 19.9273 26.7614L21.4943 25.5186C20.7782 24.6156 20.3308 23.1043 20.3308 20.8H18.3308ZM19.9273 26.7614C21.0428 28.1679 22.555 28.88 24.3708 28.88V26.88C23.1466 26.88 22.2188 26.4321 21.4943 25.5186L19.9273 26.7614ZM24.3708 28.88C26.2412 28.88 27.7853 28.0318 28.9523 26.4681L27.3494 25.2719C26.5163 26.3882 25.5405 26.88 24.3708 26.88V28.88ZM28.9565 26.4624C30.126 24.8718 30.6508 22.7561 30.6508 20.23H28.6508C28.6508 22.5039 28.1756 24.1482 27.3452 25.2776L28.9565 26.4624ZM30.6508 20.23C30.6508 17.7166 30.1791 15.6568 29.0543 14.2386L27.4873 15.4814C28.2026 16.3832 28.6508 17.9034 28.6508 20.23H30.6508ZM29.0543 14.2386C27.9388 12.8321 26.4266 12.12 24.6108 12.12V14.12C25.835 14.12 26.7628 14.5679 27.4873 15.4814L29.0543 14.2386ZM51.102 13.87L51.9443 13.3309V13.3309L51.102 13.87ZM46.062 14.62L45.3333 13.9351L45.3261 13.9429L46.062 14.62ZM44.682 28V29H45.682V28H44.682ZM42.582 28H41.582V29H42.582V28ZM37.092 14.56L36.3774 13.8603L36.37 13.8681L37.092 14.56ZM35.592 17.23L34.5967 17.1329L34.592 17.1813V17.23H35.592ZM35.592 28V29H36.592V28H35.592ZM33.492 28H32.492V29H33.492V28ZM33.492 13V12H32.492V13H33.492ZM35.592 13H36.592V12H35.592V13ZM35.592 16.39H34.592L36.5292 16.7387L35.592 16.39ZM37.362 13.99L38.0142 14.748H38.0142L37.362 13.99ZM42.762 13.18L42.455 14.1317L42.473 14.1375L42.4912 14.1427L42.762 13.18ZM44.112 14.05L44.9504 13.505V13.505L44.112 14.05ZM44.592 15.1L45.5726 14.9039V14.9039L44.592 15.1ZM44.682 16.36H43.682L45.6192 16.7087L44.682 16.36ZM46.422 13.99L47.0728 14.7493L47.083 14.7404L46.422 13.99ZM51.432 13.12L51.1661 14.084L51.432 13.12ZM52.722 13.66L52.1408 14.4737L52.1539 14.4831L52.1673 14.4921L52.722 13.66ZM53.382 14.53L52.4436 14.8757L52.4515 14.8971L52.4604 14.9181L53.382 14.53ZM53.652 15.46L52.6554 15.543L52.6554 15.543L53.652 15.46ZM54.012 27.22L53.188 27.7865L53.2085 27.8164L53.2311 27.8447L54.012 27.22ZM54.732 27.7L54.9109 26.7161L54.8633 26.7075L54.815 26.7035L54.732 27.7ZM55.062 27.76L54.8831 28.7439L54.9718 28.76H55.062V27.76ZM55.992 27.76H56.992V26.76H55.992V27.76ZM55.992 28V29H56.992V28H55.992ZM52.272 27.46L51.6212 28.2193L51.6299 28.2267L51.6388 28.234L52.272 27.46ZM51.612 26.38L52.6105 26.3245L52.6103 26.3213L51.612 26.38ZM51.582 25.87H50.582V25.8994L50.5837 25.9287L51.582 25.87ZM52.582 16.45C52.582 15.2027 52.4296 14.0893 51.9443 13.3309L50.2597 14.4091C50.4144 14.6507 50.582 15.2573 50.582 16.45H52.582ZM51.9443 13.3309C51.3584 12.4155 50.3261 12.12 49.272 12.12V14.12C50.0179 14.12 50.2056 14.3245 50.2597 14.4091L51.9443 13.3309ZM49.272 12.12C47.7554 12.12 46.4326 12.7657 45.3334 13.9351L46.7906 15.3049C47.5714 14.4743 48.3886 14.12 49.272 14.12V12.12ZM45.3261 13.9429C44.3461 15.0081 43.682 16.144 43.682 17.32H45.682C45.682 16.896 45.9378 16.2319 46.7979 15.2971L45.3261 13.9429ZM43.682 17.32V28H45.682V17.32H43.682ZM44.682 27H42.582V29H44.682V27ZM43.582 28V16.45H41.582V28H43.582ZM43.582 16.45C43.582 15.2027 43.4296 14.0893 42.9443 13.3309L41.2597 14.4091C41.4144 14.6507 41.582 15.2573 41.582 16.45H43.582ZM42.9443 13.3309C42.3358 12.3801 41.1877 12.12 40.062 12.12V14.12C41.0163 14.12 41.2282 14.3599 41.2597 14.4091L42.9443 13.3309ZM40.062 12.12C38.6807 12.12 37.448 12.767 36.3775 13.8604L37.8065 15.2596C38.6159 14.433 39.3633 14.12 40.062 14.12V12.12ZM36.37 13.8681C35.3832 14.8978 34.7083 15.9891 34.5967 17.1329L36.5873 17.3271C36.6357 16.8309 36.9608 16.1422 37.814 15.2519L36.37 13.8681ZM34.592 17.23V28H36.592V17.23H34.592ZM35.592 27H33.492V29H35.592V27ZM34.492 28V13H32.492V28H34.492ZM33.492 14H35.592V12H33.492V14ZM34.592 13V16.39H36.592V13H34.592ZM36.5292 16.7387C36.7779 16.0703 37.2524 15.4036 38.0142 14.748L36.7098 13.232C35.7516 14.0564 35.046 14.9897 34.6548 16.0413L36.5292 16.7387ZM38.0142 14.748C38.7066 14.1522 39.439 13.88 40.242 13.88V11.88C38.925 11.88 37.7374 12.3478 36.7098 13.232L38.0142 14.748ZM40.242 13.88C41.2545 13.88 41.9766 13.9774 42.455 14.1317L43.069 12.2283C42.3074 11.9826 41.3495 11.88 40.242 11.88V13.88ZM42.4912 14.1427C42.9893 14.2827 43.1899 14.4662 43.2735 14.595L44.9504 13.505C44.5141 12.8338 43.8147 12.4373 43.0327 12.2173L42.4912 14.1427ZM43.2735 14.595C43.4989 14.9416 43.5862 15.17 43.6114 15.2961L45.5726 14.9039C45.4778 14.43 45.2451 13.9584 44.9504 13.505L43.2735 14.595ZM43.6114 15.2961C43.6523 15.5005 43.682 15.8441 43.682 16.36H45.682C45.682 15.7959 45.6517 15.2995 45.5726 14.9039L43.6114 15.2961ZM45.6192 16.7087C45.869 16.0373 46.3351 15.3815 47.0728 14.7493L45.7712 13.2307C44.8288 14.0385 44.1349 14.9627 43.7448 16.0113L45.6192 16.7087ZM47.083 14.7404C47.7725 14.1329 48.445 13.88 49.122 13.88V11.88C47.8789 11.88 46.7514 12.3671 45.761 13.2396L47.083 14.7404ZM49.122 13.88C50.0387 13.88 50.7083 13.9577 51.1661 14.084L51.6979 12.156C50.9956 11.9623 50.1253 11.88 49.122 11.88V13.88ZM51.1661 14.084C51.7045 14.2325 52.0022 14.3747 52.1408 14.4737L53.3032 12.8463C52.8818 12.5453 52.3195 12.3275 51.6979 12.156L51.1661 14.084ZM52.1673 14.4921C52.2698 14.5604 52.3674 14.6688 52.4436 14.8757L54.3203 14.1843C54.1166 13.6312 53.7742 13.1596 53.2767 12.8279L52.1673 14.4921ZM52.4604 14.9181C52.6042 15.2597 52.6483 15.4568 52.6554 15.543L54.6485 15.377C54.6157 14.9832 54.4798 14.5603 54.3036 14.1419L52.4604 14.9181ZM52.6554 15.543C52.672 15.7416 52.682 16.0491 52.682 16.48H54.682C54.682 16.0309 54.672 15.6584 54.6485 15.377L52.6554 15.543ZM52.682 16.48V25.87H54.682V16.48H52.682ZM52.682 25.87C52.682 26.5582 52.8096 27.2362 53.188 27.7865L54.836 26.6535C54.7744 26.5638 54.682 26.3418 54.682 25.87H52.682ZM53.2311 27.8447C53.5435 28.2351 54.0093 28.6432 54.6489 28.6965L54.815 26.7035C54.894 26.71 54.9337 26.7376 54.9267 26.733C54.9223 26.73 54.9077 26.7196 54.8839 26.6968C54.8601 26.674 54.8295 26.6411 54.7929 26.5953L53.2311 27.8447ZM54.5531 28.6839L54.8831 28.7439L55.2409 26.7761L54.9109 26.7161L54.5531 28.6839ZM55.062 28.76H55.992V26.76H55.062V28.76ZM54.992 27.76V28H56.992V27.76H54.992ZM55.992 27H54.162V29H55.992V27ZM54.162 27C53.4732 27 53.1023 26.8473 52.9052 26.686L51.6388 28.234C52.3217 28.7927 53.2108 29 54.162 29V27ZM52.9228 26.7007C52.6008 26.4247 52.6089 26.2963 52.6105 26.3245L50.6135 26.4355C50.6551 27.1837 51.1032 27.7753 51.6212 28.2193L52.9228 26.7007ZM52.6103 26.3213L52.5803 25.8113L50.5837 25.9287L50.6137 26.4387L52.6103 26.3213ZM52.582 25.87V16.45H50.582V25.87H52.582ZM60.2302 26.14L59.4268 26.7356L59.4335 26.7444L60.2302 26.14ZM69.0202 26.98L69.9393 26.5861L69.56 25.701L68.6612 26.0467L69.0202 26.98ZM69.1102 27.19L69.4715 28.1224L70.4374 27.7482L70.0293 26.7961L69.1102 27.19ZM58.7902 26.32L59.4799 25.5959L58.7902 26.32ZM58.8802 14.95L58.1576 14.2588L58.8802 14.95ZM68.0602 14.35L68.7187 13.5974L68.0602 14.35ZM69.7402 19V20H70.7402V19H69.7402ZM59.0302 19V18H58.1352L58.0363 18.8896L59.0302 19ZM67.7002 18.76V19.76H68.7107L68.7001 18.7496L67.7002 18.76ZM66.5902 14.5L65.8027 15.1163V15.1163L66.5902 14.5ZM60.7402 14.62L59.9969 13.951L59.9895 13.9594L60.7402 14.62ZM59.0602 18.76L58.0694 18.6249L57.9146 19.76H59.0602V18.76ZM57.9402 20.68C57.9402 23.2364 58.3761 25.3182 59.4269 26.7356L61.0335 25.5444C60.3643 24.6418 59.9402 23.0836 59.9402 20.68H57.9402ZM59.4335 26.7444C60.4969 28.1462 61.9382 28.88 63.6802 28.88V26.88C62.5822 26.88 61.7234 26.4538 61.0269 25.5356L59.4335 26.7444ZM63.6802 28.88C65.7794 28.88 67.6845 28.5651 69.3792 27.9133L68.6612 26.0467C67.2359 26.5949 65.581 26.88 63.6802 26.88V28.88ZM68.1011 27.3739L68.191 27.5839L70.0293 26.7961L69.9393 26.5861L68.1011 27.3739ZM68.7489 26.2576C67.2826 26.8258 65.5981 27.12 63.6802 27.12V29.12C65.8023 29.12 67.7378 28.7942 69.4715 28.1224L68.7489 26.2576ZM63.6802 27.12C61.8957 27.12 60.526 26.5922 59.4799 25.5959L58.1005 27.0441C59.5744 28.4478 61.4647 29.12 63.6802 29.12V27.12ZM59.4799 25.5959C58.4913 24.6544 57.9002 23.1174 57.9002 20.77H55.9002C55.9002 23.4226 56.5691 25.5856 58.1005 27.0441L59.4799 25.5959ZM57.9002 20.77C57.9002 18.4453 58.5106 16.7832 59.6028 15.6412L58.1576 14.2588C56.6098 15.8768 55.9002 18.0947 55.9002 20.77H57.9002ZM59.6028 15.6412C60.7203 14.473 62.1323 13.88 63.9202 13.88V11.88C61.6281 11.88 59.6801 12.667 58.1576 14.2588L59.6028 15.6412ZM63.9202 13.88C65.3446 13.88 66.483 14.2988 67.4017 15.1026L68.7187 13.5974C67.3973 12.4412 65.7758 11.88 63.9202 11.88V13.88ZM67.4017 15.1026C68.2454 15.8409 68.7402 16.979 68.7402 18.7H70.7402C70.7402 16.581 70.115 14.8191 68.7187 13.5974L67.4017 15.1026ZM68.7402 18.7C68.7402 18.7002 68.7402 18.7004 68.7402 18.7006C68.7402 18.7008 68.7402 18.701 68.7402 18.7012C68.7402 18.7014 68.7402 18.7016 68.7402 18.7018C68.7402 18.702 68.7402 18.7021 68.7402 18.7023C68.7402 18.7025 68.7402 18.7027 68.7402 18.7029C68.7402 18.7031 68.7402 18.7033 68.7402 18.7035C68.7402 18.7037 68.7402 18.7039 68.7402 18.7041C68.7402 18.7043 68.7402 18.7045 68.7402 18.7047C68.7402 18.7049 68.7402 18.7051 68.7402 18.7053C68.7402 18.7055 68.7402 18.7057 68.7402 18.7059C68.7402 18.7061 68.7402 18.7062 68.7402 18.7064C68.7402 18.7066 68.7402 18.7068 68.7402 18.707C68.7402 18.7072 68.7402 18.7074 68.7402 18.7076C68.7402 18.7078 68.7402 18.708 68.7402 18.7082C68.7402 18.7084 68.7402 18.7086 68.7402 18.7088C68.7402 18.709 68.7402 18.7092 68.7402 18.7094C68.7402 18.7096 68.7402 18.7098 68.7402 18.71C68.7402 18.7102 68.7402 18.7104 68.7402 18.7105C68.7402 18.7107 68.7402 18.7109 68.7402 18.7111C68.7402 18.7113 68.7402 18.7115 68.7402 18.7117C68.7402 18.7119 68.7402 18.7121 68.7402 18.7123C68.7402 18.7125 68.7402 18.7127 68.7402 18.7129C68.7402 18.7131 68.7402 18.7133 68.7402 18.7135C68.7402 18.7137 68.7402 18.7139 68.7402 18.7141C68.7402 18.7143 68.7402 18.7145 68.7402 18.7146C68.7402 18.7148 68.7402 18.715 68.7402 18.7152C68.7402 18.7154 68.7402 18.7156 68.7402 18.7158C68.7402 18.716 68.7402 18.7162 68.7402 18.7164C68.7402 18.7166 68.7402 18.7168 68.7402 18.717C68.7402 18.7172 68.7402 18.7174 68.7402 18.7176C68.7402 18.7178 68.7402 18.718 68.7402 18.7182C68.7402 18.7184 68.7402 18.7186 68.7402 18.7188C68.7402 18.7189 68.7402 18.7191 68.7402 18.7193C68.7402 18.7195 68.7402 18.7197 68.7402 18.7199C68.7402 18.7201 68.7402 18.7203 68.7402 18.7205C68.7402 18.7207 68.7402 18.7209 68.7402 18.7211C68.7402 18.7213 68.7402 18.7215 68.7402 18.7217C68.7402 18.7219 68.7402 18.7221 68.7402 18.7223C68.7402 18.7225 68.7402 18.7227 68.7402 18.7229C68.7402 18.723 68.7402 18.7232 68.7402 18.7234C68.7402 18.7236 68.7402 18.7238 68.7402 18.724C68.7402 18.7242 68.7402 18.7244 68.7402 18.7246C68.7402 18.7248 68.7402 18.725 68.7402 18.7252C68.7402 18.7254 68.7402 18.7256 68.7402 18.7258C68.7402 18.726 68.7402 18.7262 68.7402 18.7264C68.7402 18.7266 68.7402 18.7268 68.7402 18.727C68.7402 18.7271 68.7402 18.7273 68.7402 18.7275C68.7402 18.7277 68.7402 18.7279 68.7402 18.7281C68.7402 18.7283 68.7402 18.7285 68.7402 18.7287C68.7402 18.7289 68.7402 18.7291 68.7402 18.7293C68.7402 18.7295 68.7402 18.7297 68.7402 18.7299C68.7402 18.7301 68.7402 18.7303 68.7402 18.7305C68.7402 18.7307 68.7402 18.7309 68.7402 18.7311C68.7402 18.7313 68.7402 18.7314 68.7402 18.7316C68.7402 18.7318 68.7402 18.732 68.7402 18.7322C68.7402 18.7324 68.7402 18.7326 68.7402 18.7328C68.7402 18.733 68.7402 18.7332 68.7402 18.7334C68.7402 18.7336 68.7402 18.7338 68.7402 18.734C68.7402 18.7342 68.7402 18.7344 68.7402 18.7346C68.7402 18.7348 68.7402 18.735 68.7402 18.7352C68.7402 18.7354 68.7402 18.7355 68.7402 18.7357C68.7402 18.7359 68.7402 18.7361 68.7402 18.7363C68.7402 18.7365 68.7402 18.7367 68.7402 18.7369C68.7402 18.7371 68.7402 18.7373 68.7402 18.7375C68.7402 18.7377 68.7402 18.7379 68.7402 18.7381C68.7402 18.7383 68.7402 18.7385 68.7402 18.7387C68.7402 18.7389 68.7402 18.7391 68.7402 18.7393C68.7402 18.7395 68.7402 18.7396 68.7402 18.7398C68.7402 18.74 68.7402 18.7402 68.7402 18.7404C68.7402 18.7406 68.7402 18.7408 68.7402 18.741C68.7402 18.7412 68.7402 18.7414 68.7402 18.7416C68.7402 18.7418 68.7402 18.742 68.7402 18.7422C68.7402 18.7424 68.7402 18.7426 68.7402 18.7428C68.7402 18.743 68.7402 18.7432 68.7402 18.7434C68.7402 18.7436 68.7402 18.7437 68.7402 18.7439C68.7402 18.7441 68.7402 18.7443 68.7402 18.7445C68.7402 18.7447 68.7402 18.7449 68.7402 18.7451C68.7402 18.7453 68.7402 18.7455 68.7402 18.7457C68.7402 18.7459 68.7402 18.7461 68.7402 18.7463C68.7402 18.7465 68.7402 18.7467 68.7402 18.7469C68.7402 18.7471 68.7402 18.7473 68.7402 18.7475C68.7402 18.7477 68.7402 18.7479 68.7402 18.748C68.7402 18.7482 68.7402 18.7484 68.7402 18.7486C68.7402 18.7488 68.7402 18.749 68.7402 18.7492C68.7402 18.7494 68.7402 18.7496 68.7402 18.7498C68.7402 18.75 68.7402 18.7502 68.7402 18.7504C68.7402 18.7506 68.7402 18.7508 68.7402 18.751C68.7402 18.7512 68.7402 18.7514 68.7402 18.7516C68.7402 18.7518 68.7402 18.752 68.7402 18.7521C68.7402 18.7523 68.7402 18.7525 68.7402 18.7527C68.7402 18.7529 68.7402 18.7531 68.7402 18.7533C68.7402 18.7535 68.7402 18.7537 68.7402 18.7539C68.7402 18.7541 68.7402 18.7543 68.7402 18.7545C68.7402 18.7547 68.7402 18.7549 68.7402 18.7551C68.7402 18.7553 68.7402 18.7555 68.7402 18.7557C68.7402 18.7559 68.7402 18.7561 68.7402 18.7563C68.7402 18.7564 68.7402 18.7566 68.7402 18.7568C68.7402 18.757 68.7402 18.7572 68.7402 18.7574C68.7402 18.7576 68.7402 18.7578 68.7402 18.758C68.7402 18.7582 68.7402 18.7584 68.7402 18.7586C68.7402 18.7588 68.7402 18.759 68.7402 18.7592C68.7402 18.7594 68.7402 18.7596 68.7402 18.7598C68.7402 18.76 68.7402 18.7602 68.7402 18.7604C68.7402 18.7605 68.7402 18.7607 68.7402 18.7609C68.7402 18.7611 68.7402 18.7613 68.7402 18.7615C68.7402 18.7617 68.7402 18.7619 68.7402 18.7621C68.7402 18.7623 68.7402 18.7625 68.7402 18.7627C68.7402 18.7629 68.7402 18.7631 68.7402 18.7633C68.7402 18.7635 68.7402 18.7637 68.7402 18.7639C68.7402 18.7641 68.7402 18.7643 68.7402 18.7645C68.7402 18.7646 68.7402 18.7648 68.7402 18.765C68.7402 18.7652 68.7402 18.7654 68.7402 18.7656C68.7402 18.7658 68.7402 18.766 68.7402 18.7662C68.7402 18.7664 68.7402 18.7666 68.7402 18.7668C68.7402 18.767 68.7402 18.7672 68.7402 18.7674C68.7402 18.7676 68.7402 18.7678 68.7402 18.768C68.7402 18.7682 68.7402 18.7684 68.7402 18.7686C68.7402 18.7687 68.7402 18.7689 68.7402 18.7691C68.7402 18.7693 68.7402 18.7695 68.7402 18.7697C68.7402 18.7699 68.7402 18.7701 68.7402 18.7703C68.7402 18.7705 68.7402 18.7707 68.7402 18.7709C68.7402 18.7711 68.7402 18.7713 68.7402 18.7715C68.7402 18.7717 68.7402 18.7719 68.7402 18.7721C68.7402 18.7723 68.7402 18.7725 68.7402 18.7727C68.7402 18.7729 68.7402 18.773 68.7402 18.7732C68.7402 18.7734 68.7402 18.7736 68.7402 18.7738C68.7402 18.774 68.7402 18.7742 68.7402 18.7744C68.7402 18.7746 68.7402 18.7748 68.7402 18.775C68.7402 18.7752 68.7402 18.7754 68.7402 18.7756C68.7402 18.7758 68.7402 18.776 68.7402 18.7762C68.7402 18.7764 68.7402 18.7766 68.7402 18.7768C68.7402 18.777 68.7402 18.7771 68.7402 18.7773C68.7402 18.7775 68.7402 18.7777 68.7402 18.7779C68.7402 18.7781 68.7402 18.7783 68.7402 18.7785C68.7402 18.7787 68.7402 18.7789 68.7402 18.7791C68.7402 18.7793 68.7402 18.7795 68.7402 18.7797C68.7402 18.7799 68.7402 18.7801 68.7402 18.7803C68.7402 18.7805 68.7402 18.7807 68.7402 18.7809C68.7402 18.7811 68.7402 18.7812 68.7402 18.7814C68.7402 18.7816 68.7402 18.7818 68.7402 18.782C68.7402 18.7822 68.7402 18.7824 68.7402 18.7826C68.7402 18.7828 68.7402 18.783 68.7402 18.7832C68.7402 18.7834 68.7402 18.7836 68.7402 18.7838C68.7402 18.784 68.7402 18.7842 68.7402 18.7844C68.7402 18.7846 68.7402 18.7848 68.7402 18.785C68.7402 18.7852 68.7402 18.7854 68.7402 18.7855C68.7402 18.7857 68.7402 18.7859 68.7402 18.7861C68.7402 18.7863 68.7402 18.7865 68.7402 18.7867C68.7402 18.7869 68.7402 18.7871 68.7402 18.7873C68.7402 18.7875 68.7402 18.7877 68.7402 18.7879C68.7402 18.7881 68.7402 18.7883 68.7402 18.7885C68.7402 18.7887 68.7402 18.7889 68.7402 18.7891C68.7402 18.7893 68.7402 18.7895 68.7402 18.7896C68.7402 18.7898 68.7402 18.79 68.7402 18.7902C68.7402 18.7904 68.7402 18.7906 68.7402 18.7908C68.7402 18.791 68.7402 18.7912 68.7402 18.7914C68.7402 18.7916 68.7402 18.7918 68.7402 18.792C68.7402 18.7922 68.7402 18.7924 68.7402 18.7926C68.7402 18.7928 68.7402 18.793 68.7402 18.7932C68.7402 18.7934 68.7402 18.7936 68.7402 18.7938C68.7402 18.7939 68.7402 18.7941 68.7402 18.7943C68.7402 18.7945 68.7402 18.7947 68.7402 18.7949C68.7402 18.7951 68.7402 18.7953 68.7402 18.7955C68.7402 18.7957 68.7402 18.7959 68.7402 18.7961C68.7402 18.7963 68.7402 18.7965 68.7402 18.7967C68.7402 18.7969 68.7402 18.7971 68.7402 18.7973C68.7402 18.7975 68.7402 18.7977 68.7402 18.7979C68.7402 18.798 68.7402 18.7982 68.7402 18.7984C68.7402 18.7986 68.7402 18.7988 68.7402 18.799C68.7402 18.7992 68.7402 18.7994 68.7402 18.7996C68.7402 18.7998 68.7402 18.8 68.7402 18.8002C68.7402 18.8004 68.7402 18.8006 68.7402 18.8008C68.7402 18.801 68.7402 18.8012 68.7402 18.8014C68.7402 18.8016 68.7402 18.8018 68.7402 18.802C68.7402 18.8021 68.7402 18.8023 68.7402 18.8025C68.7402 18.8027 68.7402 18.8029 68.7402 18.8031C68.7402 18.8033 68.7402 18.8035 68.7402 18.8037C68.7402 18.8039 68.7402 18.8041 68.7402 18.8043C68.7402 18.8045 68.7402 18.8047 68.7402 18.8049C68.7402 18.8051 68.7402 18.8053 68.7402 18.8055C68.7402 18.8057 68.7402 18.8059 68.7402 18.8061C68.7402 18.8062 68.7402 18.8064 68.7402 18.8066C68.7402 18.8068 68.7402 18.807 68.7402 18.8072C68.7402 18.8074 68.7402 18.8076 68.7402 18.8078C68.7402 18.808 68.7402 18.8082 68.7402 18.8084C68.7402 18.8086 68.7402 18.8088 68.7402 18.809C68.7402 18.8092 68.7402 18.8094 68.7402 18.8096C68.7402 18.8098 68.7402 18.81 68.7402 18.8102C68.7402 18.8104 68.7402 18.8105 68.7402 18.8107C68.7402 18.8109 68.7402 18.8111 68.7402 18.8113C68.7402 18.8115 68.7402 18.8117 68.7402 18.8119C68.7402 18.8121 68.7402 18.8123 68.7402 18.8125C68.7402 18.8127 68.7402 18.8129 68.7402 18.8131C68.7402 18.8133 68.7402 18.8135 68.7402 18.8137C68.7402 18.8139 68.7402 18.8141 68.7402 18.8143C68.7402 18.8145 68.7402 18.8146 68.7402 18.8148C68.7402 18.815 68.7402 18.8152 68.7402 18.8154C68.7402 18.8156 68.7402 18.8158 68.7402 18.816C68.7402 18.8162 68.7402 18.8164 68.7402 18.8166C68.7402 18.8168 68.7402 18.817 68.7402 18.8172C68.7402 18.8174 68.7402 18.8176 68.7402 18.8178C68.7402 18.818 68.7402 18.8182 68.7402 18.8184C68.7402 18.8186 68.7402 18.8188 68.7402 18.8189C68.7402 18.8191 68.7402 18.8193 68.7402 18.8195C68.7402 18.8197 68.7402 18.8199 68.7402 18.8201C68.7402 18.8203 68.7402 18.8205 68.7402 18.8207C68.7402 18.8209 68.7402 18.8211 68.7402 18.8213C68.7402 18.8215 68.7402 18.8217 68.7402 18.8219C68.7402 18.8221 68.7402 18.8223 68.7402 18.8225C68.7402 18.8227 68.7402 18.8229 68.7402 18.823C68.7402 18.8232 68.7402 18.8234 68.7402 18.8236C68.7402 18.8238 68.7402 18.824 68.7402 18.8242C68.7402 18.8244 68.7402 18.8246 68.7402 18.8248C68.7402 18.825 68.7402 18.8252 68.7402 18.8254C68.7402 18.8256 68.7402 18.8258 68.7402 18.826C68.7402 18.8262 68.7402 18.8264 68.7402 18.8266C68.7402 18.8268 68.7402 18.827 68.7402 18.8271C68.7402 18.8273 68.7402 18.8275 68.7402 18.8277C68.7402 18.8279 68.7402 18.8281 68.7402 18.8283C68.7402 18.8285 68.7402 18.8287 68.7402 18.8289C68.7402 18.8291 68.7402 18.8293 68.7402 18.8295C68.7402 18.8297 68.7402 18.8299 68.7402 18.8301C68.7402 18.8303 68.7402 18.8305 68.7402 18.8307C68.7402 18.8309 68.7402 18.8311 68.7402 18.8312C68.7402 18.8314 68.7402 18.8316 68.7402 18.8318C68.7402 18.832 68.7402 18.8322 68.7402 18.8324C68.7402 18.8326 68.7402 18.8328 68.7402 18.833C68.7402 18.8332 68.7402 18.8334 68.7402 18.8336C68.7402 18.8338 68.7402 18.834 68.7402 18.8342C68.7402 18.8344 68.7402 18.8346 68.7402 18.8348C68.7402 18.835 68.7402 18.8352 68.7402 18.8354C68.7402 18.8355 68.7402 18.8357 68.7402 18.8359C68.7402 18.8361 68.7402 18.8363 68.7402 18.8365C68.7402 18.8367 68.7402 18.8369 68.7402 18.8371C68.7402 18.8373 68.7402 18.8375 68.7402 18.8377C68.7402 18.8379 68.7402 18.8381 68.7402 18.8383C68.7402 18.8385 68.7402 18.8387 68.7402 18.8389C68.7402 18.8391 68.7402 18.8393 68.7402 18.8395C68.7402 18.8396 68.7402 18.8398 68.7402 18.84C68.7402 18.8402 68.7402 18.8404 68.7402 18.8406C68.7402 18.8408 68.7402 18.841 68.7402 18.8412C68.7402 18.8414 68.7402 18.8416 68.7402 18.8418C68.7402 18.842 68.7402 18.8422 68.7402 18.8424C68.7402 18.8426 68.7402 18.8428 68.7402 18.843C68.7402 18.8432 68.7402 18.8434 68.7402 18.8436C68.7402 18.8438 68.7402 18.8439 68.7402 18.8441C68.7402 18.8443 68.7402 18.8445 68.7402 18.8447C68.7402 18.8449 68.7402 18.8451 68.7402 18.8453C68.7402 18.8455 68.7402 18.8457 68.7402 18.8459C68.7402 18.8461 68.7402 18.8463 68.7402 18.8465C68.7402 18.8467 68.7402 18.8469 68.7402 18.8471C68.7402 18.8473 68.7402 18.8475 68.7402 18.8477C68.7402 18.8479 68.7402 18.848 68.7402 18.8482C68.7402 18.8484 68.7402 18.8486 68.7402 18.8488C68.7402 18.849 68.7402 18.8492 68.7402 18.8494C68.7402 18.8496 68.7402 18.8498 68.7402 18.85C68.7402 18.8502 68.7402 18.8504 68.7402 18.8506C68.7402 18.8508 68.7402 18.851 68.7402 18.8512C68.7402 18.8514 68.7402 18.8516 68.7402 18.8518C68.7402 18.852 68.7402 18.8521 68.7402 18.8523C68.7402 18.8525 68.7402 18.8527 68.7402 18.8529C68.7402 18.8531 68.7402 18.8533 68.7402 18.8535C68.7402 18.8537 68.7402 18.8539 68.7402 18.8541C68.7402 18.8543 68.7402 18.8545 68.7402 18.8547C68.7402 18.8549 68.7402 18.8551 68.7402 18.8553C68.7402 18.8555 68.7402 18.8557 68.7402 18.8559C68.7402 18.8561 68.7402 18.8562 68.7402 18.8564C68.7402 18.8566 68.7402 18.8568 68.7402 18.857C68.7402 18.8572 68.7402 18.8574 68.7402 18.8576C68.7402 18.8578 68.7402 18.858 68.7402 18.8582C68.7402 18.8584 68.7402 18.8586 68.7402 18.8588C68.7402 18.859 68.7402 18.8592 68.7402 18.8594C68.7402 18.8596 68.7402 18.8598 68.7402 18.86C68.7402 18.8602 68.7402 18.8604 68.7402 18.8605C68.7402 18.8607 68.7402 18.8609 68.7402 18.8611C68.7402 18.8613 68.7402 18.8615 68.7402 18.8617C68.7402 18.8619 68.7402 18.8621 68.7402 18.8623C68.7402 18.8625 68.7402 18.8627 68.7402 18.8629C68.7402 18.8631 68.7402 18.8633 68.7402 18.8635C68.7402 18.8637 68.7402 18.8639 68.7402 18.8641C68.7402 18.8643 68.7402 18.8645 68.7402 18.8646C68.7402 18.8648 68.7402 18.865 68.7402 18.8652C68.7402 18.8654 68.7402 18.8656 68.7402 18.8658C68.7402 18.866 68.7402 18.8662 68.7402 18.8664C68.7402 18.8666 68.7402 18.8668 68.7402 18.867C68.7402 18.8672 68.7402 18.8674 68.7402 18.8676C68.7402 18.8678 68.7402 18.868 68.7402 18.8682C68.7402 18.8684 68.7402 18.8686 68.7402 18.8687C68.7402 18.8689 68.7402 18.8691 68.7402 18.8693C68.7402 18.8695 68.7402 18.8697 68.7402 18.8699C68.7402 18.8701 68.7402 18.8703 68.7402 18.8705C68.7402 18.8707 68.7402 18.8709 68.7402 18.8711C68.7402 18.8713 68.7402 18.8715 68.7402 18.8717C68.7402 18.8719 68.7402 18.8721 68.7402 18.8723C68.7402 18.8725 68.7402 18.8727 68.7402 18.8729C68.7402 18.873 68.7402 18.8732 68.7402 18.8734C68.7402 18.8736 68.7402 18.8738 68.7402 18.874C68.7402 18.8742 68.7402 18.8744 68.7402 18.8746C68.7402 18.8748 68.7402 18.875 68.7402 18.8752C68.7402 18.8754 68.7402 18.8756 68.7402 18.8758C68.7402 18.876 68.7402 18.8762 68.7402 18.8764C68.7402 18.8766 68.7402 18.8768 68.7402 18.877C68.7402 18.8771 68.7402 18.8773 68.7402 18.8775C68.7402 18.8777 68.7402 18.8779 68.7402 18.8781C68.7402 18.8783 68.7402 18.8785 68.7402 18.8787C68.7402 18.8789 68.7402 18.8791 68.7402 18.8793C68.7402 18.8795 68.7402 18.8797 68.7402 18.8799C68.7402 18.8801 68.7402 18.8803 68.7402 18.8805C68.7402 18.8807 68.7402 18.8809 68.7402 18.8811C68.7402 18.8813 68.7402 18.8814 68.7402 18.8816C68.7402 18.8818 68.7402 18.882 68.7402 18.8822C68.7402 18.8824 68.7402 18.8826 68.7402 18.8828C68.7402 18.883 68.7402 18.8832 68.7402 18.8834C68.7402 18.8836 68.7402 18.8838 68.7402 18.884C68.7402 18.8842 68.7402 18.8844 68.7402 18.8846C68.7402 18.8848 68.7402 18.885 68.7402 18.8852C68.7402 18.8854 68.7402 18.8855 68.7402 18.8857C68.7402 18.8859 68.7402 18.8861 68.7402 18.8863C68.7402 18.8865 68.7402 18.8867 68.7402 18.8869C68.7402 18.8871 68.7402 18.8873 68.7402 18.8875C68.7402 18.8877 68.7402 18.8879 68.7402 18.8881C68.7402 18.8883 68.7402 18.8885 68.7402 18.8887C68.7402 18.8889 68.7402 18.8891 68.7402 18.8893C68.7402 18.8895 68.7402 18.8896 68.7402 18.8898C68.7402 18.89 68.7402 18.8902 68.7402 18.8904C68.7402 18.8906 68.7402 18.8908 68.7402 18.891C68.7402 18.8912 68.7402 18.8914 68.7402 18.8916C68.7402 18.8918 68.7402 18.892 68.7402 18.8922C68.7402 18.8924 68.7402 18.8926 68.7402 18.8928C68.7402 18.893 68.7402 18.8932 68.7402 18.8934C68.7402 18.8936 68.7402 18.8937 68.7402 18.8939C68.7402 18.8941 68.7402 18.8943 68.7402 18.8945C68.7402 18.8947 68.7402 18.8949 68.7402 18.8951C68.7402 18.8953 68.7402 18.8955 68.7402 18.8957C68.7402 18.8959 68.7402 18.8961 68.7402 18.8963C68.7402 18.8965 68.7402 18.8967 68.7402 18.8969C68.7402 18.8971 68.7402 18.8973 68.7402 18.8975C68.7402 18.8977 68.7402 18.8979 68.7402 18.898C68.7402 18.8982 68.7402 18.8984 68.7402 18.8986C68.7402 18.8988 68.7402 18.899 68.7402 18.8992C68.7402 18.8994 68.7402 18.8996 68.7402 18.8998C68.7402 18.9 68.7402 18.9002 68.7402 18.9004C68.7402 18.9006 68.7402 18.9008 68.7402 18.901C68.7402 18.9012 68.7402 18.9014 68.7402 18.9016C68.7402 18.9018 68.7402 18.902 68.7402 18.9021C68.7402 18.9023 68.7402 18.9025 68.7402 18.9027C68.7402 18.9029 68.7402 18.9031 68.7402 18.9033C68.7402 18.9035 68.7402 18.9037 68.7402 18.9039C68.7402 18.9041 68.7402 18.9043 68.7402 18.9045C68.7402 18.9047 68.7402 18.9049 68.7402 18.9051C68.7402 18.9053 68.7402 18.9055 68.7402 18.9057C68.7402 18.9059 68.7402 18.9061 68.7402 18.9062C68.7402 18.9064 68.7402 18.9066 68.7402 18.9068C68.7402 18.907 68.7402 18.9072 68.7402 18.9074C68.7402 18.9076 68.7402 18.9078 68.7402 18.908C68.7402 18.9082 68.7402 18.9084 68.7402 18.9086C68.7402 18.9088 68.7402 18.909 68.7402 18.9092C68.7402 18.9094 68.7402 18.9096 68.7402 18.9098C68.7402 18.91 68.7402 18.9102 68.7402 18.9104C68.7402 18.9105 68.7402 18.9107 68.7402 18.9109C68.7402 18.9111 68.7402 18.9113 68.7402 18.9115C68.7402 18.9117 68.7402 18.9119 68.7402 18.9121C68.7402 18.9123 68.7402 18.9125 68.7402 18.9127C68.7402 18.9129 68.7402 18.9131 68.7402 18.9133C68.7402 18.9135 68.7402 18.9137 68.7402 18.9139C68.7402 18.9141 68.7402 18.9143 68.7402 18.9145C68.7402 18.9146 68.7402 18.9148 68.7402 18.915C68.7402 18.9152 68.7402 18.9154 68.7402 18.9156C68.7402 18.9158 68.7402 18.916 68.7402 18.9162C68.7402 18.9164 68.7402 18.9166 68.7402 18.9168C68.7402 18.917 68.7402 18.9172 68.7402 18.9174C68.7402 18.9176 68.7402 18.9178 68.7402 18.918C68.7402 18.9182 68.7402 18.9184 68.7402 18.9186C68.7402 18.9187 68.7402 18.9189 68.7402 18.9191C68.7402 18.9193 68.7402 18.9195 68.7402 18.9197C68.7402 18.9199 68.7402 18.9201 68.7402 18.9203C68.7402 18.9205 68.7402 18.9207 68.7402 18.9209C68.7402 18.9211 68.7402 18.9213 68.7402 18.9215C68.7402 18.9217 68.7402 18.9219 68.7402 18.9221C68.7402 18.9223 68.7402 18.9225 68.7402 18.9227C68.7402 18.9229 68.7402 18.923 68.7402 18.9232C68.7402 18.9234 68.7402 18.9236 68.7402 18.9238C68.7402 18.924 68.7402 18.9242 68.7402 18.9244C68.7402 18.9246 68.7402 18.9248 68.7402 18.925C68.7402 18.9252 68.7402 18.9254 68.7402 18.9256C68.7402 18.9258 68.7402 18.926 68.7402 18.9262C68.7402 18.9264 68.7402 18.9266 68.7402 18.9268C68.7402 18.927 68.7402 18.9271 68.7402 18.9273C68.7402 18.9275 68.7402 18.9277 68.7402 18.9279C68.7402 18.9281 68.7402 18.9283 68.7402 18.9285C68.7402 18.9287 68.7402 18.9289 68.7402 18.9291C68.7402 18.9293 68.7402 18.9295 68.7402 18.9297C68.7402 18.9299 68.7402 18.9301 68.7402 18.9303C68.7402 18.9305 68.7402 18.9307 68.7402 18.9309C68.7402 18.9311 68.7402 18.9312 68.7402 18.9314C68.7402 18.9316 68.7402 18.9318 68.7402 18.932C68.7402 18.9322 68.7402 18.9324 68.7402 18.9326C68.7402 18.9328 68.7402 18.933 68.7402 18.9332C68.7402 18.9334 68.7402 18.9336 68.7402 18.9338C68.7402 18.934 68.7402 18.9342 68.7402 18.9344C68.7402 18.9346 68.7402 18.9348 68.7402 18.935C68.7402 18.9352 68.7402 18.9354 68.7402 18.9355C68.7402 18.9357 68.7402 18.9359 68.7402 18.9361C68.7402 18.9363 68.7402 18.9365 68.7402 18.9367C68.7402 18.9369 68.7402 18.9371 68.7402 18.9373C68.7402 18.9375 68.7402 18.9377 68.7402 18.9379C68.7402 18.9381 68.7402 18.9383 68.7402 18.9385C68.7402 18.9387 68.7402 18.9389 68.7402 18.9391C68.7402 18.9393 68.7402 18.9395 68.7402 18.9396C68.7402 18.9398 68.7402 18.94 68.7402 18.9402C68.7402 18.9404 68.7402 18.9406 68.7402 18.9408C68.7402 18.941 68.7402 18.9412 68.7402 18.9414C68.7402 18.9416 68.7402 18.9418 68.7402 18.942C68.7402 18.9422 68.7402 18.9424 68.7402 18.9426C68.7402 18.9428 68.7402 18.943 68.7402 18.9432C68.7402 18.9434 68.7402 18.9436 68.7402 18.9438C68.7402 18.9439 68.7402 18.9441 68.7402 18.9443C68.7402 18.9445 68.7402 18.9447 68.7402 18.9449C68.7402 18.9451 68.7402 18.9453 68.7402 18.9455C68.7402 18.9457 68.7402 18.9459 68.7402 18.9461C68.7402 18.9463 68.7402 18.9465 68.7402 18.9467C68.7402 18.9469 68.7402 18.9471 68.7402 18.9473C68.7402 18.9475 68.7402 18.9477 68.7402 18.9479C68.7402 18.948 68.7402 18.9482 68.7402 18.9484C68.7402 18.9486 68.7402 18.9488 68.7402 18.949C68.7402 18.9492 68.7402 18.9494 68.7402 18.9496C68.7402 18.9498 68.7402 18.95 68.7402 18.9502C68.7402 18.9504 68.7402 18.9506 68.7402 18.9508C68.7402 18.951 68.7402 18.9512 68.7402 18.9514C68.7402 18.9516 68.7402 18.9518 68.7402 18.952C68.7402 18.9521 68.7402 18.9523 68.7402 18.9525C68.7402 18.9527 68.7402 18.9529 68.7402 18.9531C68.7402 18.9533 68.7402 18.9535 68.7402 18.9537C68.7402 18.9539 68.7402 18.9541 68.7402 18.9543C68.7402 18.9545 68.7402 18.9547 68.7402 18.9549C68.7402 18.9551 68.7402 18.9553 68.7402 18.9555C68.7402 18.9557 68.7402 18.9559 68.7402 18.9561C68.7402 18.9562 68.7402 18.9564 68.7402 18.9566C68.7402 18.9568 68.7402 18.957 68.7402 18.9572C68.7402 18.9574 68.7402 18.9576 68.7402 18.9578C68.7402 18.958 68.7402 18.9582 68.7402 18.9584C68.7402 18.9586 68.7402 18.9588 68.7402 18.959C68.7402 18.9592 68.7402 18.9594 68.7402 18.9596C68.7402 18.9598 68.7402 18.96 68.7402 18.9602C68.7402 18.9604 68.7402 18.9605 68.7402 18.9607C68.7402 18.9609 68.7402 18.9611 68.7402 18.9613C68.7402 18.9615 68.7402 18.9617 68.7402 18.9619C68.7402 18.9621 68.7402 18.9623 68.7402 18.9625C68.7402 18.9627 68.7402 18.9629 68.7402 18.9631C68.7402 18.9633 68.7402 18.9635 68.7402 18.9637C68.7402 18.9639 68.7402 18.9641 68.7402 18.9643C68.7402 18.9645 68.7402 18.9646 68.7402 18.9648C68.7402 18.965 68.7402 18.9652 68.7402 18.9654C68.7402 18.9656 68.7402 18.9658 68.7402 18.966C68.7402 18.9662 68.7402 18.9664 68.7402 18.9666C68.7402 18.9668 68.7402 18.967 68.7402 18.9672C68.7402 18.9674 68.7402 18.9676 68.7402 18.9678C68.7402 18.968 68.7402 18.9682 68.7402 18.9684C68.7402 18.9686 68.7402 18.9688 68.7402 18.9689C68.7402 18.9691 68.7402 18.9693 68.7402 18.9695C68.7402 18.9697 68.7402 18.9699 68.7402 18.9701C68.7402 18.9703 68.7402 18.9705 68.7402 18.9707C68.7402 18.9709 68.7402 18.9711 68.7402 18.9713C68.7402 18.9715 68.7402 18.9717 68.7402 18.9719C68.7402 18.9721 68.7402 18.9723 68.7402 18.9725C68.7402 18.9727 68.7402 18.9729 68.7402 18.973C68.7402 18.9732 68.7402 18.9734 68.7402 18.9736C68.7402 18.9738 68.7402 18.974 68.7402 18.9742C68.7402 18.9744 68.7402 18.9746 68.7402 18.9748C68.7402 18.975 68.7402 18.9752 68.7402 18.9754C68.7402 18.9756 68.7402 18.9758 68.7402 18.976C68.7402 18.9762 68.7402 18.9764 68.7402 18.9766C68.7402 18.9768 68.7402 18.977 68.7402 18.9771C68.7402 18.9773 68.7402 18.9775 68.7402 18.9777C68.7402 18.9779 68.7402 18.9781 68.7402 18.9783C68.7402 18.9785 68.7402 18.9787 68.7402 18.9789C68.7402 18.9791 68.7402 18.9793 68.7402 18.9795C68.7402 18.9797 68.7402 18.9799 68.7402 18.9801C68.7402 18.9803 68.7402 18.9805 68.7402 18.9807C68.7402 18.9809 68.7402 18.9811 68.7402 18.9812C68.7402 18.9814 68.7402 18.9816 68.7402 18.9818C68.7402 18.982 68.7402 18.9822 68.7402 18.9824C68.7402 18.9826 68.7402 18.9828 68.7402 18.983C68.7402 18.9832 68.7402 18.9834 68.7402 18.9836C68.7402 18.9838 68.7402 18.984 68.7402 18.9842C68.7402 18.9844 68.7402 18.9846 68.7402 18.9848C68.7402 18.985 68.7402 18.9852 68.7402 18.9854C68.7402 18.9855 68.7402 18.9857 68.7402 18.9859C68.7402 18.9861 68.7402 18.9863 68.7402 18.9865C68.7402 18.9867 68.7402 18.9869 68.7402 18.9871C68.7402 18.9873 68.7402 18.9875 68.7402 18.9877C68.7402 18.9879 68.7402 18.9881 68.7402 18.9883C68.7402 18.9885 68.7402 18.9887 68.7402 18.9889C68.7402 18.9891 68.7402 18.9893 68.7402 18.9895C68.7402 18.9896 68.7402 18.9898 68.7402 18.99C68.7402 18.9902 68.7402 18.9904 68.7402 18.9906C68.7402 18.9908 68.7402 18.991 68.7402 18.9912C68.7402 18.9914 68.7402 18.9916 68.7402 18.9918C68.7402 18.992 68.7402 18.9922 68.7402 18.9924C68.7402 18.9926 68.7402 18.9928 68.7402 18.993C68.7402 18.9932 68.7402 18.9934 68.7402 18.9936C68.7402 18.9937 68.7402 18.9939 68.7402 18.9941C68.7402 18.9943 68.7402 18.9945 68.7402 18.9947C68.7402 18.9949 68.7402 18.9951 68.7402 18.9953C68.7402 18.9955 68.7402 18.9957 68.7402 18.9959C68.7402 18.9961 68.7402 18.9963 68.7402 18.9965C68.7402 18.9967 68.7402 18.9969 68.7402 18.9971C68.7402 18.9973 68.7402 18.9975 68.7402 18.9977C68.7402 18.9979 68.7402 18.998 68.7402 18.9982C68.7402 18.9984 68.7402 18.9986 68.7402 18.9988C68.7402 18.999 68.7402 18.9992 68.7402 18.9994C68.7402 18.9996 68.7402 18.9998 68.7402 19H70.7402C70.7402 18.9998 70.7402 18.9996 70.7402 18.9994C70.7402 18.9992 70.7402 18.999 70.7402 18.9988C70.7402 18.9986 70.7402 18.9984 70.7402 18.9982C70.7402 18.998 70.7402 18.9979 70.7402 18.9977C70.7402 18.9975 70.7402 18.9973 70.7402 18.9971C70.7402 18.9969 70.7402 18.9967 70.7402 18.9965C70.7402 18.9963 70.7402 18.9961 70.7402 18.9959C70.7402 18.9957 70.7402 18.9955 70.7402 18.9953C70.7402 18.9951 70.7402 18.9949 70.7402 18.9947C70.7402 18.9945 70.7402 18.9943 70.7402 18.9941C70.7402 18.9939 70.7402 18.9937 70.7402 18.9936C70.7402 18.9934 70.7402 18.9932 70.7402 18.993C70.7402 18.9928 70.7402 18.9926 70.7402 18.9924C70.7402 18.9922 70.7402 18.992 70.7402 18.9918C70.7402 18.9916 70.7402 18.9914 70.7402 18.9912C70.7402 18.991 70.7402 18.9908 70.7402 18.9906C70.7402 18.9904 70.7402 18.9902 70.7402 18.99C70.7402 18.9898 70.7402 18.9896 70.7402 18.9895C70.7402 18.9893 70.7402 18.9891 70.7402 18.9889C70.7402 18.9887 70.7402 18.9885 70.7402 18.9883C70.7402 18.9881 70.7402 18.9879 70.7402 18.9877C70.7402 18.9875 70.7402 18.9873 70.7402 18.9871C70.7402 18.9869 70.7402 18.9867 70.7402 18.9865C70.7402 18.9863 70.7402 18.9861 70.7402 18.9859C70.7402 18.9857 70.7402 18.9855 70.7402 18.9854C70.7402 18.9852 70.7402 18.985 70.7402 18.9848C70.7402 18.9846 70.7402 18.9844 70.7402 18.9842C70.7402 18.984 70.7402 18.9838 70.7402 18.9836C70.7402 18.9834 70.7402 18.9832 70.7402 18.983C70.7402 18.9828 70.7402 18.9826 70.7402 18.9824C70.7402 18.9822 70.7402 18.982 70.7402 18.9818C70.7402 18.9816 70.7402 18.9814 70.7402 18.9812C70.7402 18.9811 70.7402 18.9809 70.7402 18.9807C70.7402 18.9805 70.7402 18.9803 70.7402 18.9801C70.7402 18.9799 70.7402 18.9797 70.7402 18.9795C70.7402 18.9793 70.7402 18.9791 70.7402 18.9789C70.7402 18.9787 70.7402 18.9785 70.7402 18.9783C70.7402 18.9781 70.7402 18.9779 70.7402 18.9777C70.7402 18.9775 70.7402 18.9773 70.7402 18.9771C70.7402 18.977 70.7402 18.9768 70.7402 18.9766C70.7402 18.9764 70.7402 18.9762 70.7402 18.976C70.7402 18.9758 70.7402 18.9756 70.7402 18.9754C70.7402 18.9752 70.7402 18.975 70.7402 18.9748C70.7402 18.9746 70.7402 18.9744 70.7402 18.9742C70.7402 18.974 70.7402 18.9738 70.7402 18.9736C70.7402 18.9734 70.7402 18.9732 70.7402 18.973C70.7402 18.9729 70.7402 18.9727 70.7402 18.9725C70.7402 18.9723 70.7402 18.9721 70.7402 18.9719C70.7402 18.9717 70.7402 18.9715 70.7402 18.9713C70.7402 18.9711 70.7402 18.9709 70.7402 18.9707C70.7402 18.9705 70.7402 18.9703 70.7402 18.9701C70.7402 18.9699 70.7402 18.9697 70.7402 18.9695C70.7402 18.9693 70.7402 18.9691 70.7402 18.9689C70.7402 18.9688 70.7402 18.9686 70.7402 18.9684C70.7402 18.9682 70.7402 18.968 70.7402 18.9678C70.7402 18.9676 70.7402 18.9674 70.7402 18.9672C70.7402 18.967 70.7402 18.9668 70.7402 18.9666C70.7402 18.9664 70.7402 18.9662 70.7402 18.966C70.7402 18.9658 70.7402 18.9656 70.7402 18.9654C70.7402 18.9652 70.7402 18.965 70.7402 18.9648C70.7402 18.9646 70.7402 18.9645 70.7402 18.9643C70.7402 18.9641 70.7402 18.9639 70.7402 18.9637C70.7402 18.9635 70.7402 18.9633 70.7402 18.9631C70.7402 18.9629 70.7402 18.9627 70.7402 18.9625C70.7402 18.9623 70.7402 18.9621 70.7402 18.9619C70.7402 18.9617 70.7402 18.9615 70.7402 18.9613C70.7402 18.9611 70.7402 18.9609 70.7402 18.9607C70.7402 18.9605 70.7402 18.9604 70.7402 18.9602C70.7402 18.96 70.7402 18.9598 70.7402 18.9596C70.7402 18.9594 70.7402 18.9592 70.7402 18.959C70.7402 18.9588 70.7402 18.9586 70.7402 18.9584C70.7402 18.9582 70.7402 18.958 70.7402 18.9578C70.7402 18.9576 70.7402 18.9574 70.7402 18.9572C70.7402 18.957 70.7402 18.9568 70.7402 18.9566C70.7402 18.9564 70.7402 18.9562 70.7402 18.9561C70.7402 18.9559 70.7402 18.9557 70.7402 18.9555C70.7402 18.9553 70.7402 18.9551 70.7402 18.9549C70.7402 18.9547 70.7402 18.9545 70.7402 18.9543C70.7402 18.9541 70.7402 18.9539 70.7402 18.9537C70.7402 18.9535 70.7402 18.9533 70.7402 18.9531C70.7402 18.9529 70.7402 18.9527 70.7402 18.9525C70.7402 18.9523 70.7402 18.9521 70.7402 18.952C70.7402 18.9518 70.7402 18.9516 70.7402 18.9514C70.7402 18.9512 70.7402 18.951 70.7402 18.9508C70.7402 18.9506 70.7402 18.9504 70.7402 18.9502C70.7402 18.95 70.7402 18.9498 70.7402 18.9496C70.7402 18.9494 70.7402 18.9492 70.7402 18.949C70.7402 18.9488 70.7402 18.9486 70.7402 18.9484C70.7402 18.9482 70.7402 18.948 70.7402 18.9479C70.7402 18.9477 70.7402 18.9475 70.7402 18.9473C70.7402 18.9471 70.7402 18.9469 70.7402 18.9467C70.7402 18.9465 70.7402 18.9463 70.7402 18.9461C70.7402 18.9459 70.7402 18.9457 70.7402 18.9455C70.7402 18.9453 70.7402 18.9451 70.7402 18.9449C70.7402 18.9447 70.7402 18.9445 70.7402 18.9443C70.7402 18.9441 70.7402 18.9439 70.7402 18.9438C70.7402 18.9436 70.7402 18.9434 70.7402 18.9432C70.7402 18.943 70.7402 18.9428 70.7402 18.9426C70.7402 18.9424 70.7402 18.9422 70.7402 18.942C70.7402 18.9418 70.7402 18.9416 70.7402 18.9414C70.7402 18.9412 70.7402 18.941 70.7402 18.9408C70.7402 18.9406 70.7402 18.9404 70.7402 18.9402C70.7402 18.94 70.7402 18.9398 70.7402 18.9396C70.7402 18.9395 70.7402 18.9393 70.7402 18.9391C70.7402 18.9389 70.7402 18.9387 70.7402 18.9385C70.7402 18.9383 70.7402 18.9381 70.7402 18.9379C70.7402 18.9377 70.7402 18.9375 70.7402 18.9373C70.7402 18.9371 70.7402 18.9369 70.7402 18.9367C70.7402 18.9365 70.7402 18.9363 70.7402 18.9361C70.7402 18.9359 70.7402 18.9357 70.7402 18.9355C70.7402 18.9354 70.7402 18.9352 70.7402 18.935C70.7402 18.9348 70.7402 18.9346 70.7402 18.9344C70.7402 18.9342 70.7402 18.934 70.7402 18.9338C70.7402 18.9336 70.7402 18.9334 70.7402 18.9332C70.7402 18.933 70.7402 18.9328 70.7402 18.9326C70.7402 18.9324 70.7402 18.9322 70.7402 18.932C70.7402 18.9318 70.7402 18.9316 70.7402 18.9314C70.7402 18.9312 70.7402 18.9311 70.7402 18.9309C70.7402 18.9307 70.7402 18.9305 70.7402 18.9303C70.7402 18.9301 70.7402 18.9299 70.7402 18.9297C70.7402 18.9295 70.7402 18.9293 70.7402 18.9291C70.7402 18.9289 70.7402 18.9287 70.7402 18.9285C70.7402 18.9283 70.7402 18.9281 70.7402 18.9279C70.7402 18.9277 70.7402 18.9275 70.7402 18.9273C70.7402 18.9271 70.7402 18.927 70.7402 18.9268C70.7402 18.9266 70.7402 18.9264 70.7402 18.9262C70.7402 18.926 70.7402 18.9258 70.7402 18.9256C70.7402 18.9254 70.7402 18.9252 70.7402 18.925C70.7402 18.9248 70.7402 18.9246 70.7402 18.9244C70.7402 18.9242 70.7402 18.924 70.7402 18.9238C70.7402 18.9236 70.7402 18.9234 70.7402 18.9232C70.7402 18.923 70.7402 18.9229 70.7402 18.9227C70.7402 18.9225 70.7402 18.9223 70.7402 18.9221C70.7402 18.9219 70.7402 18.9217 70.7402 18.9215C70.7402 18.9213 70.7402 18.9211 70.7402 18.9209C70.7402 18.9207 70.7402 18.9205 70.7402 18.9203C70.7402 18.9201 70.7402 18.9199 70.7402 18.9197C70.7402 18.9195 70.7402 18.9193 70.7402 18.9191C70.7402 18.9189 70.7402 18.9187 70.7402 18.9186C70.7402 18.9184 70.7402 18.9182 70.7402 18.918C70.7402 18.9178 70.7402 18.9176 70.7402 18.9174C70.7402 18.9172 70.7402 18.917 70.7402 18.9168C70.7402 18.9166 70.7402 18.9164 70.7402 18.9162C70.7402 18.916 70.7402 18.9158 70.7402 18.9156C70.7402 18.9154 70.7402 18.9152 70.7402 18.915C70.7402 18.9148 70.7402 18.9146 70.7402 18.9145C70.7402 18.9143 70.7402 18.9141 70.7402 18.9139C70.7402 18.9137 70.7402 18.9135 70.7402 18.9133C70.7402 18.9131 70.7402 18.9129 70.7402 18.9127C70.7402 18.9125 70.7402 18.9123 70.7402 18.9121C70.7402 18.9119 70.7402 18.9117 70.7402 18.9115C70.7402 18.9113 70.7402 18.9111 70.7402 18.9109C70.7402 18.9107 70.7402 18.9105 70.7402 18.9104C70.7402 18.9102 70.7402 18.91 70.7402 18.9098C70.7402 18.9096 70.7402 18.9094 70.7402 18.9092C70.7402 18.909 70.7402 18.9088 70.7402 18.9086C70.7402 18.9084 70.7402 18.9082 70.7402 18.908C70.7402 18.9078 70.7402 18.9076 70.7402 18.9074C70.7402 18.9072 70.7402 18.907 70.7402 18.9068C70.7402 18.9066 70.7402 18.9064 70.7402 18.9062C70.7402 18.9061 70.7402 18.9059 70.7402 18.9057C70.7402 18.9055 70.7402 18.9053 70.7402 18.9051C70.7402 18.9049 70.7402 18.9047 70.7402 18.9045C70.7402 18.9043 70.7402 18.9041 70.7402 18.9039C70.7402 18.9037 70.7402 18.9035 70.7402 18.9033C70.7402 18.9031 70.7402 18.9029 70.7402 18.9027C70.7402 18.9025 70.7402 18.9023 70.7402 18.9021C70.7402 18.902 70.7402 18.9018 70.7402 18.9016C70.7402 18.9014 70.7402 18.9012 70.7402 18.901C70.7402 18.9008 70.7402 18.9006 70.7402 18.9004C70.7402 18.9002 70.7402 18.9 70.7402 18.8998C70.7402 18.8996 70.7402 18.8994 70.7402 18.8992C70.7402 18.899 70.7402 18.8988 70.7402 18.8986C70.7402 18.8984 70.7402 18.8982 70.7402 18.898C70.7402 18.8979 70.7402 18.8977 70.7402 18.8975C70.7402 18.8973 70.7402 18.8971 70.7402 18.8969C70.7402 18.8967 70.7402 18.8965 70.7402 18.8963C70.7402 18.8961 70.7402 18.8959 70.7402 18.8957C70.7402 18.8955 70.7402 18.8953 70.7402 18.8951C70.7402 18.8949 70.7402 18.8947 70.7402 18.8945C70.7402 18.8943 70.7402 18.8941 70.7402 18.8939C70.7402 18.8937 70.7402 18.8936 70.7402 18.8934C70.7402 18.8932 70.7402 18.893 70.7402 18.8928C70.7402 18.8926 70.7402 18.8924 70.7402 18.8922C70.7402 18.892 70.7402 18.8918 70.7402 18.8916C70.7402 18.8914 70.7402 18.8912 70.7402 18.891C70.7402 18.8908 70.7402 18.8906 70.7402 18.8904C70.7402 18.8902 70.7402 18.89 70.7402 18.8898C70.7402 18.8896 70.7402 18.8895 70.7402 18.8893C70.7402 18.8891 70.7402 18.8889 70.7402 18.8887C70.7402 18.8885 70.7402 18.8883 70.7402 18.8881C70.7402 18.8879 70.7402 18.8877 70.7402 18.8875C70.7402 18.8873 70.7402 18.8871 70.7402 18.8869C70.7402 18.8867 70.7402 18.8865 70.7402 18.8863C70.7402 18.8861 70.7402 18.8859 70.7402 18.8857C70.7402 18.8855 70.7402 18.8854 70.7402 18.8852C70.7402 18.885 70.7402 18.8848 70.7402 18.8846C70.7402 18.8844 70.7402 18.8842 70.7402 18.884C70.7402 18.8838 70.7402 18.8836 70.7402 18.8834C70.7402 18.8832 70.7402 18.883 70.7402 18.8828C70.7402 18.8826 70.7402 18.8824 70.7402 18.8822C70.7402 18.882 70.7402 18.8818 70.7402 18.8816C70.7402 18.8814 70.7402 18.8813 70.7402 18.8811C70.7402 18.8809 70.7402 18.8807 70.7402 18.8805C70.7402 18.8803 70.7402 18.8801 70.7402 18.8799C70.7402 18.8797 70.7402 18.8795 70.7402 18.8793C70.7402 18.8791 70.7402 18.8789 70.7402 18.8787C70.7402 18.8785 70.7402 18.8783 70.7402 18.8781C70.7402 18.8779 70.7402 18.8777 70.7402 18.8775C70.7402 18.8773 70.7402 18.8771 70.7402 18.877C70.7402 18.8768 70.7402 18.8766 70.7402 18.8764C70.7402 18.8762 70.7402 18.876 70.7402 18.8758C70.7402 18.8756 70.7402 18.8754 70.7402 18.8752C70.7402 18.875 70.7402 18.8748 70.7402 18.8746C70.7402 18.8744 70.7402 18.8742 70.7402 18.874C70.7402 18.8738 70.7402 18.8736 70.7402 18.8734C70.7402 18.8732 70.7402 18.873 70.7402 18.8729C70.7402 18.8727 70.7402 18.8725 70.7402 18.8723C70.7402 18.8721 70.7402 18.8719 70.7402 18.8717C70.7402 18.8715 70.7402 18.8713 70.7402 18.8711C70.7402 18.8709 70.7402 18.8707 70.7402 18.8705C70.7402 18.8703 70.7402 18.8701 70.7402 18.8699C70.7402 18.8697 70.7402 18.8695 70.7402 18.8693C70.7402 18.8691 70.7402 18.8689 70.7402 18.8687C70.7402 18.8686 70.7402 18.8684 70.7402 18.8682C70.7402 18.868 70.7402 18.8678 70.7402 18.8676C70.7402 18.8674 70.7402 18.8672 70.7402 18.867C70.7402 18.8668 70.7402 18.8666 70.7402 18.8664C70.7402 18.8662 70.7402 18.866 70.7402 18.8658C70.7402 18.8656 70.7402 18.8654 70.7402 18.8652C70.7402 18.865 70.7402 18.8648 70.7402 18.8646C70.7402 18.8645 70.7402 18.8643 70.7402 18.8641C70.7402 18.8639 70.7402 18.8637 70.7402 18.8635C70.7402 18.8633 70.7402 18.8631 70.7402 18.8629C70.7402 18.8627 70.7402 18.8625 70.7402 18.8623C70.7402 18.8621 70.7402 18.8619 70.7402 18.8617C70.7402 18.8615 70.7402 18.8613 70.7402 18.8611C70.7402 18.8609 70.7402 18.8607 70.7402 18.8605C70.7402 18.8604 70.7402 18.8602 70.7402 18.86C70.7402 18.8598 70.7402 18.8596 70.7402 18.8594C70.7402 18.8592 70.7402 18.859 70.7402 18.8588C70.7402 18.8586 70.7402 18.8584 70.7402 18.8582C70.7402 18.858 70.7402 18.8578 70.7402 18.8576C70.7402 18.8574 70.7402 18.8572 70.7402 18.857C70.7402 18.8568 70.7402 18.8566 70.7402 18.8564C70.7402 18.8562 70.7402 18.8561 70.7402 18.8559C70.7402 18.8557 70.7402 18.8555 70.7402 18.8553C70.7402 18.8551 70.7402 18.8549 70.7402 18.8547C70.7402 18.8545 70.7402 18.8543 70.7402 18.8541C70.7402 18.8539 70.7402 18.8537 70.7402 18.8535C70.7402 18.8533 70.7402 18.8531 70.7402 18.8529C70.7402 18.8527 70.7402 18.8525 70.7402 18.8523C70.7402 18.8521 70.7402 18.852 70.7402 18.8518C70.7402 18.8516 70.7402 18.8514 70.7402 18.8512C70.7402 18.851 70.7402 18.8508 70.7402 18.8506C70.7402 18.8504 70.7402 18.8502 70.7402 18.85C70.7402 18.8498 70.7402 18.8496 70.7402 18.8494C70.7402 18.8492 70.7402 18.849 70.7402 18.8488C70.7402 18.8486 70.7402 18.8484 70.7402 18.8482C70.7402 18.848 70.7402 18.8479 70.7402 18.8477C70.7402 18.8475 70.7402 18.8473 70.7402 18.8471C70.7402 18.8469 70.7402 18.8467 70.7402 18.8465C70.7402 18.8463 70.7402 18.8461 70.7402 18.8459C70.7402 18.8457 70.7402 18.8455 70.7402 18.8453C70.7402 18.8451 70.7402 18.8449 70.7402 18.8447C70.7402 18.8445 70.7402 18.8443 70.7402 18.8441C70.7402 18.8439 70.7402 18.8438 70.7402 18.8436C70.7402 18.8434 70.7402 18.8432 70.7402 18.843C70.7402 18.8428 70.7402 18.8426 70.7402 18.8424C70.7402 18.8422 70.7402 18.842 70.7402 18.8418C70.7402 18.8416 70.7402 18.8414 70.7402 18.8412C70.7402 18.841 70.7402 18.8408 70.7402 18.8406C70.7402 18.8404 70.7402 18.8402 70.7402 18.84C70.7402 18.8398 70.7402 18.8396 70.7402 18.8395C70.7402 18.8393 70.7402 18.8391 70.7402 18.8389C70.7402 18.8387 70.7402 18.8385 70.7402 18.8383C70.7402 18.8381 70.7402 18.8379 70.7402 18.8377C70.7402 18.8375 70.7402 18.8373 70.7402 18.8371C70.7402 18.8369 70.7402 18.8367 70.7402 18.8365C70.7402 18.8363 70.7402 18.8361 70.7402 18.8359C70.7402 18.8357 70.7402 18.8355 70.7402 18.8354C70.7402 18.8352 70.7402 18.835 70.7402 18.8348C70.7402 18.8346 70.7402 18.8344 70.7402 18.8342C70.7402 18.834 70.7402 18.8338 70.7402 18.8336C70.7402 18.8334 70.7402 18.8332 70.7402 18.833C70.7402 18.8328 70.7402 18.8326 70.7402 18.8324C70.7402 18.8322 70.7402 18.832 70.7402 18.8318C70.7402 18.8316 70.7402 18.8314 70.7402 18.8312C70.7402 18.8311 70.7402 18.8309 70.7402 18.8307C70.7402 18.8305 70.7402 18.8303 70.7402 18.8301C70.7402 18.8299 70.7402 18.8297 70.7402 18.8295C70.7402 18.8293 70.7402 18.8291 70.7402 18.8289C70.7402 18.8287 70.7402 18.8285 70.7402 18.8283C70.7402 18.8281 70.7402 18.8279 70.7402 18.8277C70.7402 18.8275 70.7402 18.8273 70.7402 18.8271C70.7402 18.827 70.7402 18.8268 70.7402 18.8266C70.7402 18.8264 70.7402 18.8262 70.7402 18.826C70.7402 18.8258 70.7402 18.8256 70.7402 18.8254C70.7402 18.8252 70.7402 18.825 70.7402 18.8248C70.7402 18.8246 70.7402 18.8244 70.7402 18.8242C70.7402 18.824 70.7402 18.8238 70.7402 18.8236C70.7402 18.8234 70.7402 18.8232 70.7402 18.823C70.7402 18.8229 70.7402 18.8227 70.7402 18.8225C70.7402 18.8223 70.7402 18.8221 70.7402 18.8219C70.7402 18.8217 70.7402 18.8215 70.7402 18.8213C70.7402 18.8211 70.7402 18.8209 70.7402 18.8207C70.7402 18.8205 70.7402 18.8203 70.7402 18.8201C70.7402 18.8199 70.7402 18.8197 70.7402 18.8195C70.7402 18.8193 70.7402 18.8191 70.7402 18.8189C70.7402 18.8188 70.7402 18.8186 70.7402 18.8184C70.7402 18.8182 70.7402 18.818 70.7402 18.8178C70.7402 18.8176 70.7402 18.8174 70.7402 18.8172C70.7402 18.817 70.7402 18.8168 70.7402 18.8166C70.7402 18.8164 70.7402 18.8162 70.7402 18.816C70.7402 18.8158 70.7402 18.8156 70.7402 18.8154C70.7402 18.8152 70.7402 18.815 70.7402 18.8148C70.7402 18.8146 70.7402 18.8145 70.7402 18.8143C70.7402 18.8141 70.7402 18.8139 70.7402 18.8137C70.7402 18.8135 70.7402 18.8133 70.7402 18.8131C70.7402 18.8129 70.7402 18.8127 70.7402 18.8125C70.7402 18.8123 70.7402 18.8121 70.7402 18.8119C70.7402 18.8117 70.7402 18.8115 70.7402 18.8113C70.7402 18.8111 70.7402 18.8109 70.7402 18.8107C70.7402 18.8105 70.7402 18.8104 70.7402 18.8102C70.7402 18.81 70.7402 18.8098 70.7402 18.8096C70.7402 18.8094 70.7402 18.8092 70.7402 18.809C70.7402 18.8088 70.7402 18.8086 70.7402 18.8084C70.7402 18.8082 70.7402 18.808 70.7402 18.8078C70.7402 18.8076 70.7402 18.8074 70.7402 18.8072C70.7402 18.807 70.7402 18.8068 70.7402 18.8066C70.7402 18.8064 70.7402 18.8062 70.7402 18.8061C70.7402 18.8059 70.7402 18.8057 70.7402 18.8055C70.7402 18.8053 70.7402 18.8051 70.7402 18.8049C70.7402 18.8047 70.7402 18.8045 70.7402 18.8043C70.7402 18.8041 70.7402 18.8039 70.7402 18.8037C70.7402 18.8035 70.7402 18.8033 70.7402 18.8031C70.7402 18.8029 70.7402 18.8027 70.7402 18.8025C70.7402 18.8023 70.7402 18.8021 70.7402 18.802C70.7402 18.8018 70.7402 18.8016 70.7402 18.8014C70.7402 18.8012 70.7402 18.801 70.7402 18.8008C70.7402 18.8006 70.7402 18.8004 70.7402 18.8002C70.7402 18.8 70.7402 18.7998 70.7402 18.7996C70.7402 18.7994 70.7402 18.7992 70.7402 18.799C70.7402 18.7988 70.7402 18.7986 70.7402 18.7984C70.7402 18.7982 70.7402 18.798 70.7402 18.7979C70.7402 18.7977 70.7402 18.7975 70.7402 18.7973C70.7402 18.7971 70.7402 18.7969 70.7402 18.7967C70.7402 18.7965 70.7402 18.7963 70.7402 18.7961C70.7402 18.7959 70.7402 18.7957 70.7402 18.7955C70.7402 18.7953 70.7402 18.7951 70.7402 18.7949C70.7402 18.7947 70.7402 18.7945 70.7402 18.7943C70.7402 18.7941 70.7402 18.7939 70.7402 18.7938C70.7402 18.7936 70.7402 18.7934 70.7402 18.7932C70.7402 18.793 70.7402 18.7928 70.7402 18.7926C70.7402 18.7924 70.7402 18.7922 70.7402 18.792C70.7402 18.7918 70.7402 18.7916 70.7402 18.7914C70.7402 18.7912 70.7402 18.791 70.7402 18.7908C70.7402 18.7906 70.7402 18.7904 70.7402 18.7902C70.7402 18.79 70.7402 18.7898 70.7402 18.7896C70.7402 18.7895 70.7402 18.7893 70.7402 18.7891C70.7402 18.7889 70.7402 18.7887 70.7402 18.7885C70.7402 18.7883 70.7402 18.7881 70.7402 18.7879C70.7402 18.7877 70.7402 18.7875 70.7402 18.7873C70.7402 18.7871 70.7402 18.7869 70.7402 18.7867C70.7402 18.7865 70.7402 18.7863 70.7402 18.7861C70.7402 18.7859 70.7402 18.7857 70.7402 18.7855C70.7402 18.7854 70.7402 18.7852 70.7402 18.785C70.7402 18.7848 70.7402 18.7846 70.7402 18.7844C70.7402 18.7842 70.7402 18.784 70.7402 18.7838C70.7402 18.7836 70.7402 18.7834 70.7402 18.7832C70.7402 18.783 70.7402 18.7828 70.7402 18.7826C70.7402 18.7824 70.7402 18.7822 70.7402 18.782C70.7402 18.7818 70.7402 18.7816 70.7402 18.7814C70.7402 18.7812 70.7402 18.7811 70.7402 18.7809C70.7402 18.7807 70.7402 18.7805 70.7402 18.7803C70.7402 18.7801 70.7402 18.7799 70.7402 18.7797C70.7402 18.7795 70.7402 18.7793 70.7402 18.7791C70.7402 18.7789 70.7402 18.7787 70.7402 18.7785C70.7402 18.7783 70.7402 18.7781 70.7402 18.7779C70.7402 18.7777 70.7402 18.7775 70.7402 18.7773C70.7402 18.7771 70.7402 18.777 70.7402 18.7768C70.7402 18.7766 70.7402 18.7764 70.7402 18.7762C70.7402 18.776 70.7402 18.7758 70.7402 18.7756C70.7402 18.7754 70.7402 18.7752 70.7402 18.775C70.7402 18.7748 70.7402 18.7746 70.7402 18.7744C70.7402 18.7742 70.7402 18.774 70.7402 18.7738C70.7402 18.7736 70.7402 18.7734 70.7402 18.7732C70.7402 18.773 70.7402 18.7729 70.7402 18.7727C70.7402 18.7725 70.7402 18.7723 70.7402 18.7721C70.7402 18.7719 70.7402 18.7717 70.7402 18.7715C70.7402 18.7713 70.7402 18.7711 70.7402 18.7709C70.7402 18.7707 70.7402 18.7705 70.7402 18.7703C70.7402 18.7701 70.7402 18.7699 70.7402 18.7697C70.7402 18.7695 70.7402 18.7693 70.7402 18.7691C70.7402 18.7689 70.7402 18.7687 70.7402 18.7686C70.7402 18.7684 70.7402 18.7682 70.7402 18.768C70.7402 18.7678 70.7402 18.7676 70.7402 18.7674C70.7402 18.7672 70.7402 18.767 70.7402 18.7668C70.7402 18.7666 70.7402 18.7664 70.7402 18.7662C70.7402 18.766 70.7402 18.7658 70.7402 18.7656C70.7402 18.7654 70.7402 18.7652 70.7402 18.765C70.7402 18.7648 70.7402 18.7646 70.7402 18.7645C70.7402 18.7643 70.7402 18.7641 70.7402 18.7639C70.7402 18.7637 70.7402 18.7635 70.7402 18.7633C70.7402 18.7631 70.7402 18.7629 70.7402 18.7627C70.7402 18.7625 70.7402 18.7623 70.7402 18.7621C70.7402 18.7619 70.7402 18.7617 70.7402 18.7615C70.7402 18.7613 70.7402 18.7611 70.7402 18.7609C70.7402 18.7607 70.7402 18.7605 70.7402 18.7604C70.7402 18.7602 70.7402 18.76 70.7402 18.7598C70.7402 18.7596 70.7402 18.7594 70.7402 18.7592C70.7402 18.759 70.7402 18.7588 70.7402 18.7586C70.7402 18.7584 70.7402 18.7582 70.7402 18.758C70.7402 18.7578 70.7402 18.7576 70.7402 18.7574C70.7402 18.7572 70.7402 18.757 70.7402 18.7568C70.7402 18.7566 70.7402 18.7564 70.7402 18.7563C70.7402 18.7561 70.7402 18.7559 70.7402 18.7557C70.7402 18.7555 70.7402 18.7553 70.7402 18.7551C70.7402 18.7549 70.7402 18.7547 70.7402 18.7545C70.7402 18.7543 70.7402 18.7541 70.7402 18.7539C70.7402 18.7537 70.7402 18.7535 70.7402 18.7533C70.7402 18.7531 70.7402 18.7529 70.7402 18.7527C70.7402 18.7525 70.7402 18.7523 70.7402 18.7521C70.7402 18.752 70.7402 18.7518 70.7402 18.7516C70.7402 18.7514 70.7402 18.7512 70.7402 18.751C70.7402 18.7508 70.7402 18.7506 70.7402 18.7504C70.7402 18.7502 70.7402 18.75 70.7402 18.7498C70.7402 18.7496 70.7402 18.7494 70.7402 18.7492C70.7402 18.749 70.7402 18.7488 70.7402 18.7486C70.7402 18.7484 70.7402 18.7482 70.7402 18.748C70.7402 18.7479 70.7402 18.7477 70.7402 18.7475C70.7402 18.7473 70.7402 18.7471 70.7402 18.7469C70.7402 18.7467 70.7402 18.7465 70.7402 18.7463C70.7402 18.7461 70.7402 18.7459 70.7402 18.7457C70.7402 18.7455 70.7402 18.7453 70.7402 18.7451C70.7402 18.7449 70.7402 18.7447 70.7402 18.7445C70.7402 18.7443 70.7402 18.7441 70.7402 18.7439C70.7402 18.7437 70.7402 18.7436 70.7402 18.7434C70.7402 18.7432 70.7402 18.743 70.7402 18.7428C70.7402 18.7426 70.7402 18.7424 70.7402 18.7422C70.7402 18.742 70.7402 18.7418 70.7402 18.7416C70.7402 18.7414 70.7402 18.7412 70.7402 18.741C70.7402 18.7408 70.7402 18.7406 70.7402 18.7404C70.7402 18.7402 70.7402 18.74 70.7402 18.7398C70.7402 18.7396 70.7402 18.7395 70.7402 18.7393C70.7402 18.7391 70.7402 18.7389 70.7402 18.7387C70.7402 18.7385 70.7402 18.7383 70.7402 18.7381C70.7402 18.7379 70.7402 18.7377 70.7402 18.7375C70.7402 18.7373 70.7402 18.7371 70.7402 18.7369C70.7402 18.7367 70.7402 18.7365 70.7402 18.7363C70.7402 18.7361 70.7402 18.7359 70.7402 18.7357C70.7402 18.7355 70.7402 18.7354 70.7402 18.7352C70.7402 18.735 70.7402 18.7348 70.7402 18.7346C70.7402 18.7344 70.7402 18.7342 70.7402 18.734C70.7402 18.7338 70.7402 18.7336 70.7402 18.7334C70.7402 18.7332 70.7402 18.733 70.7402 18.7328C70.7402 18.7326 70.7402 18.7324 70.7402 18.7322C70.7402 18.732 70.7402 18.7318 70.7402 18.7316C70.7402 18.7314 70.7402 18.7313 70.7402 18.7311C70.7402 18.7309 70.7402 18.7307 70.7402 18.7305C70.7402 18.7303 70.7402 18.7301 70.7402 18.7299C70.7402 18.7297 70.7402 18.7295 70.7402 18.7293C70.7402 18.7291 70.7402 18.7289 70.7402 18.7287C70.7402 18.7285 70.7402 18.7283 70.7402 18.7281C70.7402 18.7279 70.7402 18.7277 70.7402 18.7275C70.7402 18.7273 70.7402 18.7271 70.7402 18.727C70.7402 18.7268 70.7402 18.7266 70.7402 18.7264C70.7402 18.7262 70.7402 18.726 70.7402 18.7258C70.7402 18.7256 70.7402 18.7254 70.7402 18.7252C70.7402 18.725 70.7402 18.7248 70.7402 18.7246C70.7402 18.7244 70.7402 18.7242 70.7402 18.724C70.7402 18.7238 70.7402 18.7236 70.7402 18.7234C70.7402 18.7232 70.7402 18.723 70.7402 18.7229C70.7402 18.7227 70.7402 18.7225 70.7402 18.7223C70.7402 18.7221 70.7402 18.7219 70.7402 18.7217C70.7402 18.7215 70.7402 18.7213 70.7402 18.7211C70.7402 18.7209 70.7402 18.7207 70.7402 18.7205C70.7402 18.7203 70.7402 18.7201 70.7402 18.7199C70.7402 18.7197 70.7402 18.7195 70.7402 18.7193C70.7402 18.7191 70.7402 18.7189 70.7402 18.7188C70.7402 18.7186 70.7402 18.7184 70.7402 18.7182C70.7402 18.718 70.7402 18.7178 70.7402 18.7176C70.7402 18.7174 70.7402 18.7172 70.7402 18.717C70.7402 18.7168 70.7402 18.7166 70.7402 18.7164C70.7402 18.7162 70.7402 18.716 70.7402 18.7158C70.7402 18.7156 70.7402 18.7154 70.7402 18.7152C70.7402 18.715 70.7402 18.7148 70.7402 18.7146C70.7402 18.7145 70.7402 18.7143 70.7402 18.7141C70.7402 18.7139 70.7402 18.7137 70.7402 18.7135C70.7402 18.7133 70.7402 18.7131 70.7402 18.7129C70.7402 18.7127 70.7402 18.7125 70.7402 18.7123C70.7402 18.7121 70.7402 18.7119 70.7402 18.7117C70.7402 18.7115 70.7402 18.7113 70.7402 18.7111C70.7402 18.7109 70.7402 18.7107 70.7402 18.7105C70.7402 18.7104 70.7402 18.7102 70.7402 18.71C70.7402 18.7098 70.7402 18.7096 70.7402 18.7094C70.7402 18.7092 70.7402 18.709 70.7402 18.7088C70.7402 18.7086 70.7402 18.7084 70.7402 18.7082C70.7402 18.708 70.7402 18.7078 70.7402 18.7076C70.7402 18.7074 70.7402 18.7072 70.7402 18.707C70.7402 18.7068 70.7402 18.7066 70.7402 18.7064C70.7402 18.7062 70.7402 18.7061 70.7402 18.7059C70.7402 18.7057 70.7402 18.7055 70.7402 18.7053C70.7402 18.7051 70.7402 18.7049 70.7402 18.7047C70.7402 18.7045 70.7402 18.7043 70.7402 18.7041C70.7402 18.7039 70.7402 18.7037 70.7402 18.7035C70.7402 18.7033 70.7402 18.7031 70.7402 18.7029C70.7402 18.7027 70.7402 18.7025 70.7402 18.7023C70.7402 18.7021 70.7402 18.702 70.7402 18.7018C70.7402 18.7016 70.7402 18.7014 70.7402 18.7012C70.7402 18.701 70.7402 18.7008 70.7402 18.7006C70.7402 18.7004 70.7402 18.7002 70.7402 18.7H68.7402ZM69.7402 18H59.0302V20H69.7402V18ZM58.0363 18.8896C57.972 19.4686 57.9402 20.0656 57.9402 20.68H59.9402C59.9402 20.1344 59.9684 19.6114 60.0241 19.1104L58.0363 18.8896ZM68.7001 18.7496C68.6792 16.7396 68.2959 15.0569 67.3777 13.8837L65.8027 15.1163C66.3245 15.7831 66.6812 16.9404 66.7002 18.7704L68.7001 18.7496ZM67.3777 13.8837C66.4736 12.7285 65.2565 12.12 63.8002 12.12V14.12C64.6239 14.12 65.2667 14.4315 65.8027 15.1163L67.3777 13.8837ZM63.8002 12.12C62.3252 12.12 61.0492 12.7819 59.9969 13.951L61.4835 15.289C62.2312 14.4581 62.9951 14.12 63.8002 14.12V12.12ZM59.9895 13.9594C58.9427 15.1489 58.3273 16.7336 58.0694 18.6249L60.051 18.8951C60.2731 17.2664 60.7777 16.0911 61.4909 15.2806L59.9895 13.9594ZM59.0602 19.76H67.7002V17.76H59.0602V19.76Z" fill="#ECE7E1" mask="url(#path-2-outside-1_28_189)"/>
</svg>
